<?xml version="1.0" encoding="UTF-8"?>
<svg viewBox="0 0 1080 742" xmlns="http://www.w3.org/2000/svg"
     width="1080" height="742" font-family="Georgia, 'Times New Roman', serif">
<defs>
  <style>
    .mono { font-family: 'Courier New', monospace; }
  </style>

  <marker id="arr-dark" viewBox="0 0 8 8" refX="7" refY="4" markerWidth="5" markerHeight="5" orient="auto">
    <path d="M0,0 L8,4 L0,8 Z" fill="#2a2218"/>
  </marker>
  <marker id="arr-red" viewBox="0 0 8 8" refX="7" refY="4" markerWidth="5" markerHeight="5" orient="auto">
    <path d="M0,0 L8,4 L0,8 Z" fill="#c0392b"/>
  </marker>
  <marker id="arr-amber" viewBox="0 0 8 8" refX="7" refY="4" markerWidth="5" markerHeight="5" orient="auto">
    <path d="M0,0 L8,4 L0,8 Z" fill="#c0a870"/>
  </marker>
  <marker id="arr-blue" viewBox="0 0 8 8" refX="7" refY="4" markerWidth="5" markerHeight="5" orient="auto">
    <path d="M0,0 L8,4 L0,8 Z" fill="#3a6a9a"/>
  </marker>
  <marker id="arr-green" viewBox="0 0 8 8" refX="7" refY="4" markerWidth="5" markerHeight="5" orient="auto">
    <path d="M0,0 L8,4 L0,8 Z" fill="#2a7a2a"/>
  </marker>

  <pattern id="grid" x="0" y="0" width="20" height="20" patternUnits="userSpaceOnUse">
    <path d="M 20 0 L 0 0 0 20" fill="none" stroke="#d8d0c0" stroke-width="0.3"/>
  </pattern>

  <!-- Sky/water gradient for bridge scene -->
  <linearGradient id="skyGrad" x1="0" y1="0" x2="0" y2="1">
    <stop offset="0%" stop-color="#4a6e8a"/>
    <stop offset="60%" stop-color="#7aa0c0"/>
    <stop offset="100%" stop-color="#5a8090"/>
  </linearGradient>
  <linearGradient id="waterGrad" x1="0" y1="0" x2="0" y2="1">
    <stop offset="0%" stop-color="#3a6070"/>
    <stop offset="100%" stop-color="#2a4858"/>
  </linearGradient>
  <!-- Wind turbulence lines pattern -->
  <pattern id="windLines" x="0" y="0" width="40" height="20" patternUnits="userSpaceOnUse">
    <path d="M0,10 Q10,5 20,10 Q30,15 40,10" stroke="#a0c8e0" stroke-width="0.6" fill="none" opacity="0.5"/>
  </pattern>
</defs>

<!-- ═══════════════════════════════════════════════════ -->
<!-- BACKGROUND                                          -->
<!-- ═══════════════════════════════════════════════════ -->
<rect width="1080" height="742" fill="#f5f0e8"/>
<rect width="1080" height="742" fill="url(#grid)" opacity="0.45"/>

<!-- ═══════════════════════════════════════════════════ -->
<!-- TITLE BLOCK                                         -->
<!-- ═══════════════════════════════════════════════════ -->
<rect x="0" y="0" width="1080" height="50" fill="#1a1208"/>
<line x1="0" y1="50" x2="1080" y2="50" stroke="#c0a870" stroke-width="2"/>
<text x="540" y="20" text-anchor="middle" font-size="14" fill="#f0ece4" letter-spacing="4" font-weight="bold">TACOMA NARROWS BRIDGE — AEROELASTIC FAILURE ANALYSIS</text>
<text x="540" y="40" text-anchor="middle" font-size="9" fill="#c0a870" letter-spacing="2">7 NOVEMBER 1940  ·  TORSIONAL FLUTTER AT ~42 MPH WIND  ·  SPAN: 2,800 FT  ·  "GALLOPING GERTIE"</text>

<!-- ═══════════════════════════════════════════════════ -->
<!-- ROW 1 — LEFT: BRIDGE DIAGRAM  (x 0–630)            -->
<!--          RIGHT: KEY PARAMETERS  (x 630–1080)       -->
<!-- ═══════════════════════════════════════════════════ -->

<!-- Sky background for diagram -->
<rect x="0" y="50" width="630" height="263" fill="url(#skyGrad)"/>
<!-- Wind turbulence overlay -->
<rect x="0" y="50" width="630" height="165" fill="url(#windLines)" opacity="0.6"/>
<!-- Water -->
<rect x="0" y="250" width="630" height="63" fill="url(#waterGrad)"/>
<!-- Water ripples -->
<path d="M0,258 Q79,253 157,258 Q236,263 315,258 Q394,253 472,258 Q551,263 630,258" stroke="#5a9ab0" stroke-width="1" fill="none" opacity="0.6"/>
<path d="M0,272 Q79,267 157,272 Q236,277 315,272 Q394,267 472,272 Q551,277 630,272" stroke="#5a9ab0" stroke-width="0.8" fill="none" opacity="0.4"/>

<!-- Horizon line label -->
<line x1="0" y1="313" x2="630" y2="313" stroke="#3a5a6a" stroke-width="1" stroke-dasharray="6,4"/>
<text x="8" y="310" font-size="8" fill="#a0c8d8" font-style="italic">Puget Sound, Washington State</text>

<!-- ── BRIDGE STRUCTURE ── -->
<!-- Left tower -->
<rect x="122" y="116" width="20" height="132" fill="#8a9aaa" stroke="#b8c8d8" stroke-width="1.5"/>
<!-- Left tower crossbar -->
<rect x="113" y="139" width="38" height="9" fill="#7a8a9a" stroke="#b8c8d8" stroke-width="1"/>
<!-- Left tower top -->
<rect x="127" y="109" width="11" height="12" fill="#9aaabb" stroke="#c8d4e0" stroke-width="1"/>
<!-- Left tower foundation -->
<rect x="111" y="244" width="41" height="8" fill="#5a6878" stroke="#b8c8d8" stroke-width="1"/>

<!-- Right tower -->
<rect x="488" y="116" width="20" height="132" fill="#8a9aaa" stroke="#b8c8d8" stroke-width="1.5"/>
<!-- Right tower crossbar -->
<rect x="479" y="139" width="38" height="9" fill="#7a8a9a" stroke="#b8c8d8" stroke-width="1"/>
<!-- Right tower top -->
<rect x="493" y="109" width="11" height="12" fill="#9aaabb" stroke="#c8d4e0" stroke-width="1"/>
<!-- Right tower foundation -->
<rect x="477" y="244" width="41" height="8" fill="#5a6878" stroke="#b8c8d8" stroke-width="1"/>

<!-- Main cables (catenary curves) -->
<path d="M 44,136 Q 133,173 315,198 Q 497,173 586,136" stroke="#c8c890" stroke-width="3" fill="none"/>
<!-- Cable shadow -->
<path d="M 44,138 Q 133,175 315,200 Q 497,175 586,138" stroke="#8a8860" stroke-width="1.5" fill="none" opacity="0.5"/>

<!-- Vertical suspender cables (left span) -->
<line x1="184" y1="181" x2="184" y2="218" stroke="#c8c890" stroke-width="1.2"/>
<line x1="219" y1="187" x2="219" y2="218" stroke="#c8c890" stroke-width="1.2"/>
<line x1="254" y1="191" x2="254" y2="218" stroke="#c8c890" stroke-width="1.2"/>
<line x1="289" y1="195" x2="289" y2="218" stroke="#c8c890" stroke-width="1.2"/>
<!-- Vertical suspender cables (right span) -->
<line x1="341" y1="195" x2="341" y2="218" stroke="#c8c890" stroke-width="1.2"/>
<line x1="376" y1="191" x2="376" y2="218" stroke="#c8c890" stroke-width="1.2"/>
<line x1="411" y1="187" x2="411" y2="218" stroke="#c8c890" stroke-width="1.2"/>
<line x1="446" y1="181" x2="446" y2="218" stroke="#c8c890" stroke-width="1.2"/>

<!-- DECK — shown twisting (torsional flutter effect) -->
<!-- Left half of deck twisting down-left -->
<path d="M 142,218 L 142,225 L 315,212 L 315,218 Z" fill="#7a6848" stroke="#5a4830" stroke-width="1"/>
<!-- Right half of deck twisting up-right -->
<path d="M 315,218 L 315,212 L 488,228 L 488,225 Z" fill="#9a8858" stroke="#5a4830" stroke-width="1"/>
<!-- Deck centerline crack indicator -->
<line x1="315" y1="210" x2="315" y2="230" stroke="#c0392b" stroke-width="1.5" stroke-dasharray="3,2"/>

<!-- Plate girder detail (solid, not truss — key design flaw) -->
<rect x="142" y="225" width="173" height="7" fill="#5a4830" stroke="#3a2818" stroke-width="0.8"/>
<rect x="315" y="225" width="173" height="7" fill="#6a5840" stroke="#3a2818" stroke-width="0.8"/>
<!-- Girder label -->
<text x="228" y="242" text-anchor="middle" font-size="7" fill="#e8d8b8" font-style="italic">solid plate girder — 8 ft deep</text>

<!-- Wind arrows from left — positioned clear of tower -->
<path d="M 30,175 L 72,175" stroke="#d0e8f0" stroke-width="2.5" fill="none" marker-end="url(#arr-blue)"/>
<path d="M 22,192 L 64,192" stroke="#d0e8f0" stroke-width="2" fill="none" marker-end="url(#arr-blue)"/>
<path d="M 30,209 L 72,209" stroke="#d0e8f0" stroke-width="2.5" fill="none" marker-end="url(#arr-blue)"/>
<path d="M 22,226 L 64,226" stroke="#d0e8f0" stroke-width="2" fill="none" marker-end="url(#arr-blue)"/>
<text x="8" y="170" font-size="8" fill="#a0c8e8" font-weight="bold">~42 mph</text>
<text x="14" y="182" font-size="7" fill="#80a8c8">wind</text>

<!-- Torsion arc indicator -->
<path d="M 244,204 Q 258,188 272,204" stroke="#e07020" stroke-width="2" fill="none" marker-end="url(#arr-amber)"/>
<path d="M 350,204 Q 364,220 378,204" stroke="#e07020" stroke-width="2" fill="none" marker-end="url(#arr-amber)"/>
<text x="312" y="201" text-anchor="middle" font-size="7" fill="#e07020" font-weight="bold">45° twist</text>

<!-- Side anchor cables -->
<line x1="44" y1="136" x2="122" y2="145" stroke="#c8c890" stroke-width="2"/>
<line x1="586" y1="136" x2="508" y2="145" stroke="#c8c890" stroke-width="2"/>

<!-- Callout labels LEFT SIDE — repositioned below wind arrows, clear of tower -->
<rect x="12" y="65" width="138" height="28" fill="#1a1208" rx="2" opacity="0.93"/>
<text x="81" y="77" text-anchor="middle" font-size="8" fill="#c0a870" font-weight="bold" class="mono">10:00 AM PST</text>
<text x="81" y="88" text-anchor="middle" font-size="7" fill="#d0c8b8">Torsional flutter begins</text>
<line x1="150" y1="79" x2="244" y2="204" stroke="#e07020" stroke-width="1.2" stroke-dasharray="4,3" marker-end="url(#arr-amber)"/>

<rect x="12" y="101" width="138" height="28" fill="#1a0808" rx="2" opacity="0.93"/>
<text x="81" y="113" text-anchor="middle" font-size="8" fill="#e06040" font-weight="bold" class="mono">10:07 AM PST</text>
<text x="81" y="124" text-anchor="middle" font-size="7" fill="#d0c8b8">28 ft rise, 45° deck twist</text>
<line x1="150" y1="115" x2="312" y2="210" stroke="#c0392b" stroke-width="1" stroke-dasharray="4,3" marker-end="url(#arr-red)"/>

<rect x="12" y="137" width="138" height="28" fill="#1a0808" rx="2" opacity="0.93"/>
<text x="81" y="149" text-anchor="middle" font-size="8" fill="#e06040" font-weight="bold" class="mono">11:00 AM PST</text>
<text x="81" y="160" text-anchor="middle" font-size="7" fill="#d0c8b8">Progressive collapse</text>
<line x1="150" y1="151" x2="315" y2="228" stroke="#c0392b" stroke-width="1" stroke-dasharray="4,3" marker-end="url(#arr-red)"/>

<rect x="12" y="173" width="138" height="28" fill="#0a1a08" rx="2" opacity="0.93"/>
<text x="81" y="185" text-anchor="middle" font-size="8" fill="#60cc60" font-weight="bold" class="mono">POST-COLLAPSE</text>
<text x="81" y="196" text-anchor="middle" font-size="7" fill="#d0c8b8">No human fatalities (1 dog)</text>

<!-- Callout labels RIGHT SIDE — anchored to right panel boundary -->
<rect x="494" y="74" width="130" height="28" fill="#2a1008" rx="2" opacity="0.93"/>
<text x="559" y="85" text-anchor="middle" font-size="8" fill="#ff7040" font-weight="bold">North cable band</text>
<text x="559" y="96" text-anchor="middle" font-size="7" fill="#d0c8b8">slipped — triggered torsion</text>
<line x1="494" y1="87" x2="426" y2="191" stroke="#c0392b" stroke-width="1.2" stroke-dasharray="3,3" marker-end="url(#arr-red)"/>

<rect x="494" y="110" width="130" height="28" fill="#0a1428" rx="2" opacity="0.93"/>
<text x="559" y="121" text-anchor="middle" font-size="8" fill="#6aaae8" font-weight="bold">~0.23 Hz torsion</text>
<text x="559" y="132" text-anchor="middle" font-size="7" fill="#d0c8b8">vs 0.60 Hz vertical mode</text>

<rect x="494" y="146" width="130" height="28" fill="#0a1428" rx="2" opacity="0.93"/>
<text x="559" y="157" text-anchor="middle" font-size="8" fill="#6aaae8" font-weight="bold">~700 torsional cycles</text>
<text x="559" y="168" text-anchor="middle" font-size="7" fill="#d0c8b8">in final hour before collapse</text>

<!-- ── RIGHT PANEL: KEY PARAMETERS ── -->
<rect x="630" y="50" width="450" height="263" fill="#0d1220"/>
<line x1="630" y1="50" x2="630" y2="313" stroke="#c0a870" stroke-width="1.5"/>
<rect x="630" y="50" width="450" height="24" fill="#161e30"/>
<text x="855" y="67" text-anchor="middle" font-size="10" fill="#c0a870" letter-spacing="2">KEY PARAMETERS &amp; CONTEXT</text>

<!-- Wind speed comparison -->
<rect x="643" y="85" width="196" height="66" fill="#0a1a2a" stroke="#3a6a9a" stroke-width="1" rx="3"/>
<text x="741" y="101" text-anchor="middle" font-size="9" fill="#c0a870">Wind Speed at Collapse</text>
<text x="741" y="130" text-anchor="middle" font-size="22" fill="#e06040" font-weight="bold">42 mph</text>
<text x="741" y="144" text-anchor="middle" font-size="8" fill="#8aaac8">vs. 120 mph design limit (~12%)</text>

<!-- Design flaw -->
<rect x="853" y="85" width="213" height="66" fill="#1a1008" stroke="#c0a870" stroke-width="1" rx="3"/>
<text x="960" y="101" text-anchor="middle" font-size="9" fill="#c0a870">Deck Geometry</text>
<text x="960" y="121" text-anchor="middle" font-size="12" fill="#e0c080" font-weight="bold">1:350 depth/span ratio</text>
<text x="960" y="137" text-anchor="middle" font-size="8" fill="#c09850">8 ft girders / 2,800 ft span</text>
<text x="960" y="150" text-anchor="middle" font-size="7.5" fill="#c09850">width/span = 1:72</text>

<!-- Root cause callout -->
<rect x="643" y="162" width="423" height="44" fill="#1a0808" stroke="#c0392b" stroke-width="0.8" rx="2"/>
<text x="854" y="177" text-anchor="middle" font-size="8.5" fill="#e0c080" font-weight="bold">Root cause: solid plate-girder deck acted as an airfoil generating aerodynamic lift &amp; moment</text>
<text x="854" y="191" text-anchor="middle" font-size="7.5" fill="#c09060">Deck was too slender and torsionally weak. Deflection-theory design favoured economy over aerodynamic stability.</text>
<text x="854" y="203" text-anchor="middle" font-size="7" fill="#c09060">No pre-construction wind-tunnel testing was required or performed.</text>

<!-- Bridge facts box -->
<rect x="643" y="215" width="196" height="93" fill="#0e1628" stroke="#3a6a9a" stroke-width="1" rx="3"/>
<text x="741" y="230" text-anchor="middle" font-size="9" fill="#c0a870">Bridge Specifications</text>
<line x1="649" y1="234" x2="833" y2="234" stroke="#3a6a9a" stroke-width="0.6"/>
<text x="649" y="248" font-size="7.5" fill="#a0b8d0">Main span length:    2,800 ft</text>
<text x="649" y="261" font-size="7.5" fill="#a0b8d0">Stiffening girder depth:  8 ft</text>
<text x="649" y="274" font-size="7.5" fill="#a0b8d0">Deck width:              39 ft</text>
<line x1="649" y1="280" x2="833" y2="280" stroke="#3a6a9a" stroke-width="0.6"/>
<text x="741" y="294" text-anchor="middle" font-size="7.5" fill="#e06040" font-weight="bold">Opened: 1 Jul 1940 · Fell: 7 Nov 1940</text>

<!-- Physics parameters box -->
<rect x="853" y="215" width="213" height="93" fill="#141414" stroke="#c0a870" stroke-width="0.8" rx="3"/>
<text x="959" y="230" text-anchor="middle" font-size="9" fill="#c0a870">Dynamic Parameters</text>
<line x1="859" y1="234" x2="1060" y2="234" stroke="#c0a870" stroke-width="0.6"/>
<text x="859" y="248" font-size="7.5" fill="#d0c8b8">Vertical mode:      0.60–0.63 Hz</text>
<text x="859" y="261" font-size="7.5" fill="#d0c8b8">Torsional mode:     ~0.23 Hz</text>
<text x="859" y="274" font-size="7.5" fill="#d0c8b8">Observed period:    ~5 sec</text>
<text x="859" y="287" font-size="7.5" fill="#e06040">Max deck twist:      ~45°  /  28 ft rise</text>

<!-- ═══════════════════════════════════════════════════ -->
<!-- SECTION DIVIDER                                     -->
<!-- ═══════════════════════════════════════════════════ -->
<rect x="0" y="313" width="1080" height="18" fill="#161e30"/>
<line x1="0" y1="313" x2="1080" y2="313" stroke="#c0a870" stroke-width="1.5"/>
<line x1="0" y1="331" x2="1080" y2="331" stroke="#c0a870" stroke-width="1.5"/>
<text x="540" y="325" text-anchor="middle" font-size="8.5" fill="#c0a870" letter-spacing="3">DETAIL PANELS — FAILURE MECHANISM, SWISS CHEESE &amp; 5-WHYS ROOT CAUSE</text>

<!-- ═══════════════════════════════════════════════════ -->
<!-- PANEL A — AEROELASTIC FAILURE CHAIN                -->
<!-- x=0, y=331, w=352, h=381                           -->
<!-- ═══════════════════════════════════════════════════ -->
<rect x="0" y="331" width="352" height="381" fill="#faf6ee" stroke="#c8bca8" stroke-width="1"/>
<rect x="0" y="331" width="352" height="20" fill="#161e30"/>
<text x="176" y="345" text-anchor="middle" font-size="9" fill="#f0ece4" letter-spacing="1.5">A — AEROELASTIC FAILURE CHAIN</text>

<text x="176" y="364" text-anchor="middle" font-size="8.5" fill="#2a2218" font-weight="bold">Design decisions &amp; sequence — 1938–1940</text>

<!-- Step 1 -->
<rect x="12" y="371" width="328" height="34" fill="#e8e0f0" stroke="#7a6a9a" stroke-width="0.8" rx="2"/>
<text x="176" y="383" text-anchor="middle" font-size="8" fill="#3a2a5a" font-weight="bold">1938 — Moisseiff selected; Eldridge concept rejected</text>
<text x="176" y="396" text-anchor="middle" font-size="7" fill="#5a4a7a">Federal funding required cheaper design. Plate girder deck chosen over open truss.</text>

<line x1="176" y1="405" x2="176" y2="413" stroke="#8a7a9a" stroke-width="1.5" marker-end="url(#arr-dark)"/>

<!-- Step 2 -->
<rect x="12" y="413" width="328" height="34" fill="#e8e0f0" stroke="#7a6a9a" stroke-width="0.8" rx="2"/>
<text x="176" y="425" text-anchor="middle" font-size="8" fill="#3a2a5a" font-weight="bold">1940 (May) — Bridge opens; deck already bouncing</text>
<text x="176" y="438" text-anchor="middle" font-size="7" fill="#c0392b">Workers note vertical oscillations. Four hydraulic buffers installed — no improvement.</text>

<line x1="176" y1="447" x2="176" y2="455" stroke="#8a7a9a" stroke-width="1.5" marker-end="url(#arr-dark)"/>

<!-- Step 3 -->
<rect x="12" y="455" width="328" height="34" fill="#ffe8d8" stroke="#c07840" stroke-width="0.8" rx="2"/>
<text x="176" y="467" text-anchor="middle" font-size="8" fill="#5a2808" font-weight="bold">Oct 1940 — Tie-down cables added; center span unaffected</text>
<text x="176" y="480" text-anchor="middle" font-size="7" fill="#5a2808">One cable snapped Nov 1. Farquharson's retrofit (perforated girders) not yet installed.</text>

<line x1="176" y1="489" x2="176" y2="497" stroke="#8a7a9a" stroke-width="1.5" marker-end="url(#arr-dark)"/>

<!-- Step 4 -->
<rect x="12" y="497" width="328" height="34" fill="#ffe0c8" stroke="#c06030" stroke-width="1" rx="2"/>
<text x="176" y="509" text-anchor="middle" font-size="8" fill="#5a1808" font-weight="bold">7 Nov, ~9:00 AM — 42 mph wind, deck oscillates vertically</text>
<text x="176" y="522" text-anchor="middle" font-size="7" fill="#5a1808">Frequency ~0.60 Hz. Traffic still moving. Wind-induced vertical mode — seemingly familiar.</text>

<line x1="176" y1="531" x2="176" y2="539" stroke="#8a7a9a" stroke-width="1.5" marker-end="url(#arr-dark)"/>

<!-- Step 5 -->
<rect x="12" y="539" width="328" height="34" fill="#ffd0b8" stroke="#c04020" stroke-width="1.2" rx="2"/>
<text x="176" y="551" text-anchor="middle" font-size="8" fill="#5a0808" font-weight="bold">~10:00 AM — North midspan cable band slips</text>
<text x="176" y="564" text-anchor="middle" font-size="7" fill="#5a0808">Splits north cable into unequal lengths. Mode switches abruptly to torsion at ~0.23 Hz.</text>

<line x1="176" y1="573" x2="176" y2="581" stroke="#c0392b" stroke-width="2" marker-end="url(#arr-red)"/>

<!-- Step 6 — COLLAPSE -->
<rect x="12" y="581" width="328" height="44" fill="#c0392b" stroke="#8a1808" stroke-width="1.5" rx="2"/>
<text x="176" y="597" text-anchor="middle" font-size="8.5" fill="#fff" font-weight="bold">10:07–11:00 AM — Self-excited torsional flutter, collapse</text>
<text x="176" y="609" text-anchor="middle" font-size="7" fill="#ffe0d8">Deck twists 45°; 28 ft rise per side. ~700 torsional cycles.</text>
<text x="176" y="620" text-anchor="middle" font-size="7" fill="#ffe0d8">Girders twist, bolts shear, suspenders snap. Bridge falls into Puget Sound.</text>

<!-- Equation box -->
<rect x="12" y="633" width="328" height="42" fill="#f0ece0" stroke="#c0a870" stroke-width="0.8" rx="2"/>
<text x="176" y="646" text-anchor="middle" font-size="8" fill="#2a2218" font-weight="bold">Flutter instability condition:</text>
<text x="176" y="660" text-anchor="middle" font-size="8.5" fill="#3a5a8a" font-style="italic">c_eff(U) &lt; 0  →  θ(t) ≈ θ₀ · e^(σt) · sin(ωt),  σ &gt; 0</text>
<text x="176" y="672" text-anchor="middle" font-size="7" fill="#6a5a40">Negative aerodynamic damping — oscillation grows without bound</text>

<!-- Source note -->
<text x="176" y="692" text-anchor="middle" font-size="7" fill="#8a7a60" font-style="italic">Refs: WSDOT TNB History · Cambridge J. Fluid Mech. 2022 · Journal of Sound &amp; Vibration (2008)</text>
<text x="176" y="703" text-anchor="middle" font-size="7" fill="#8a7a60" font-style="italic">Contributing: no mandatory aeroelastic testing pre-construction</text>

<!-- ═══════════════════════════════════════════════════ -->
<!-- PANEL B — SWISS CHEESE & ROOT CAUSE                -->
<!-- x=360, y=331, w=362, h=381                         -->
<!-- ═══════════════════════════════════════════════════ -->
<rect x="360" y="331" width="362" height="381" fill="#faf6ee" stroke="#c8bca8" stroke-width="1"/>
<rect x="360" y="331" width="362" height="20" fill="#161e30"/>
<text x="541" y="345" text-anchor="middle" font-size="9" fill="#f0ece4" letter-spacing="1.5">B — SWISS CHEESE &amp; 5-WHYS ANALYSIS</text>

<text x="541" y="364" text-anchor="middle" font-size="8.5" fill="#2a2218" font-weight="bold">Aligned failure layers — each a hole in the defence</text>

<!-- Layer 1 -->
<rect x="368" y="371" width="346" height="54" fill="#e8f4e8" stroke="#2a7a2a" stroke-width="1" rx="3"/>
<rect x="368" y="371" width="346" height="16" fill="#2a5a2a" rx="2"/>
<text x="541" y="383" text-anchor="middle" font-size="8" fill="#c8e8c8" font-weight="bold">LAYER 1 — Material / Design</text>
<text x="374" y="398" font-size="7" fill="#1a4a1a">Extreme deck slenderness (1:350 depth/span). Solid plate girders — airfoil cross-section</text>
<text x="374" y="410" font-size="7" fill="#1a4a1a">generating lift. Insufficient torsional stiffness. No aerodynamic pre-validation.</text>
<text x="374" y="421" font-size="7" fill="#2a6a2a" font-weight="bold">Hole: bridge strong statically, but aeroelastically unstable.</text>

<!-- Layer 2 -->
<rect x="368" y="433" width="346" height="54" fill="#e8f0f8" stroke="#3a6a9a" stroke-width="1" rx="3"/>
<rect x="368" y="433" width="346" height="16" fill="#1a3a6a" rx="2"/>
<text x="541" y="445" text-anchor="middle" font-size="8" fill="#c0d8f0" font-weight="bold">LAYER 2 — Management / Decisions</text>
<text x="374" y="460" font-size="7" fill="#1a2a4a">Cost pressure pushed design toward Moisseiff's slender deflection-theory concept.</text>
<text x="374" y="472" font-size="7" fill="#1a2a4a">Eldridge's conservative objections overruled. Buffers &amp; tie-downs installed late, ineffective.</text>
<text x="374" y="484" font-size="7" fill="#1a4a8a" font-weight="bold">Hole: post-opening remediation was partial and too slow.</text>

<!-- Layer 3 -->
<rect x="368" y="495" width="346" height="54" fill="#fff4d8" stroke="#c0a030" stroke-width="1" rx="3"/>
<rect x="368" y="495" width="346" height="16" fill="#6a5010" rx="2"/>
<text x="541" y="507" text-anchor="middle" font-size="8" fill="#f0d890" font-weight="bold">LAYER 3 — Regulatory / Oversight</text>
<text x="374" y="522" font-size="7" fill="#4a3010">Federal and state experts approved plans under prevailing 1930s theory.</text>
<text x="374" y="534" font-size="7" fill="#4a3010">No mandatory wind-tunnel or aeroelastic testing requirement for long-span bridges.</text>
<text x="374" y="546" font-size="7" fill="#8a6010" font-weight="bold">Hole: profession-wide blind spot on wind-induced dynamics.</text>

<!-- Layer 4 -->
<rect x="368" y="557" width="346" height="54" fill="#f0e8f8" stroke="#7a5a9a" stroke-width="1" rx="3"/>
<rect x="368" y="557" width="346" height="16" fill="#4a2a6a" rx="2"/>
<text x="541" y="569" text-anchor="middle" font-size="8" fill="#d8c0f0" font-weight="bold">LAYER 4 — Knowledge / Theory</text>
<text x="374" y="585" font-size="7" fill="#3a1a5a">1930s suspension-bridge practice relied on deflection theory (static).</text>
<text x="374" y="597" font-size="7" fill="#3a1a5a">Self-excited aeroelastic flutter not yet part of standard bridge design vocabulary.</text>
<text x="374" y="609" font-size="7" fill="#6a3a8a" font-weight="bold">Hole: accepted theory under-estimated wind-structure interaction.</text>

<!-- 5-Whys compact -->
<rect x="368" y="619" width="346" height="85" fill="#f0ece0" stroke="#c0a870" stroke-width="0.8" rx="3"/>
<rect x="368" y="619" width="346" height="14" fill="#3a2a18" rx="2"/>
<text x="541" y="630" text-anchor="middle" font-size="8" fill="#e0c880" font-weight="bold">5-WHYS ROOT CAUSE CHAIN</text>
<text x="374" y="644" font-size="7" fill="#4a3a20"><tspan font-weight="bold">Why 1:</tspan> Why did the bridge collapse?  →  Large torsional oscillation caused structural breakup.</text>
<text x="374" y="656" font-size="7" fill="#4a3a20"><tspan font-weight="bold">Why 2:</tspan> Why did torsional flutter develop?  →  Mode switched to self-excited torsion at ~0.23 Hz.</text>
<text x="374" y="668" font-size="7" fill="#4a3a20"><tspan font-weight="bold">Why 3:</tspan> Why flutter at only 42 mph?  →  Deck too torsionally weak; solid girder destabilised by wind.</text>
<text x="374" y="680" font-size="7" fill="#4a3a20"><tspan font-weight="bold">Why 4:</tspan> Why such a slender deck?  →  Cost-driven design followed deflection-theory preference.</text>
<text x="374" y="694" font-size="7" fill="#c0392b" font-weight="bold">Why 5: No pre-construction aeroelastic verification was required or performed.</text>

<!-- ═══════════════════════════════════════════════════ -->
<!-- PANEL C — LEGACY & TIMELINE                        -->
<!-- x=730, y=331, w=350, h=381                         -->
<!-- ═══════════════════════════════════════════════════ -->
<rect x="730" y="331" width="350" height="381" fill="#faf6ee" stroke="#c8bca8" stroke-width="1"/>
<rect x="730" y="331" width="350" height="20" fill="#161e30"/>
<text x="905" y="345" text-anchor="middle" font-size="9" fill="#f0ece4" letter-spacing="1.5">C — EVENT TIMELINE &amp; LEGACY</text>

<text x="905" y="364" text-anchor="middle" font-size="8.5" fill="#2a2218" font-weight="bold">7 November 1940 — key events &amp; engineering legacy</text>

<!-- Column headers -->
<text x="748" y="379" font-size="7.5" fill="#8a7a60" font-weight="bold">TIME</text>
<text x="816" y="379" font-size="7.5" fill="#8a7a60" font-weight="bold">STATUS</text>
<text x="880" y="379" font-size="7.5" fill="#8a7a60" font-weight="bold">EVENT</text>
<line x1="736" y1="383" x2="1073" y2="383" stroke="#c8bca8" stroke-width="0.8"/>

<!-- Row 1 -->
<text x="810" y="396" text-anchor="end" font-size="7" fill="#3a6030" font-weight="bold" class="mono">Jul 1, 1940</text>
<rect x="816" y="385" width="56" height="13" fill="#2a7a2a" rx="1" opacity="0.7"/>
<text x="880" y="396" font-size="7" fill="#3a6030">Bridge opens — 4th longest suspension span in world</text>

<!-- Row 2 -->
<text x="810" y="413" text-anchor="end" font-size="7" fill="#5a4a28" font-weight="bold" class="mono">May 1940</text>
<rect x="816" y="402" width="56" height="13" fill="#c08030" rx="1" opacity="0.7"/>
<text x="880" y="413" font-size="7" fill="#5a4a28">Bouncing noted — workers call it "Galloping Gertie"</text>

<!-- Row 3 -->
<text x="810" y="430" text-anchor="end" font-size="7" fill="#5a4a28" font-weight="bold" class="mono">Oct 1940</text>
<rect x="816" y="419" width="56" height="13" fill="#c07020" rx="1" opacity="0.8"/>
<text x="880" y="430" font-size="7" fill="#5a4a28">Hydraulic buffers + tie-down cables installed; ineffective</text>

<!-- Row 4 — KEY INCIDENT -->
<rect x="736" y="437" width="336" height="3" fill="#c0392b" opacity="0.3"/>
<text x="810" y="449" text-anchor="end" font-size="7" fill="#c0392b" font-weight="bold" class="mono">~9:00 AM</text>
<rect x="816" y="438" width="56" height="13" fill="#c0a030" rx="1"/>
<text x="880" y="449" font-size="7" fill="#c0392b" font-weight="bold">42 mph wind — vertical oscillation begins (~0.60 Hz)</text>

<!-- Row 5 -->
<text x="810" y="466" text-anchor="end" font-size="7" fill="#8a2010" font-weight="bold" class="mono">~9:50 AM</text>
<rect x="816" y="455" width="56" height="13" fill="#c07020" rx="1" opacity="0.85"/>
<text x="880" y="466" font-size="7" fill="#8a2010">Last vehicle crosses; bridge closed to traffic</text>

<!-- Row 6 — MODE SWITCH -->
<text x="810" y="483" text-anchor="end" font-size="7" fill="#8a2010" font-weight="bold" class="mono">~10:00 AM</text>
<rect x="816" y="472" width="56" height="13" fill="#c0392b" rx="1" opacity="0.85"/>
<text x="880" y="483" font-size="7" fill="#8a2010" font-weight="bold">Cable band slips — mode switches to torsion (~0.23 Hz)</text>

<!-- Row 7 -->
<text x="810" y="500" text-anchor="end" font-size="7" fill="#8a2010" font-weight="bold" class="mono">10:07 AM</text>
<rect x="816" y="489" width="56" height="13" fill="#c0392b" rx="1" opacity="0.9"/>
<text x="880" y="500" font-size="7" fill="#8a2010">Deck twisting 45°; one side rising 28 ft each 5 seconds</text>

<!-- Row 8 -->
<text x="810" y="517" text-anchor="end" font-size="7" fill="#8a2010" font-weight="bold" class="mono">10:30 AM</text>
<rect x="816" y="506" width="56" height="13" fill="#c0392b" rx="1" opacity="0.9"/>
<text x="880" y="517" font-size="7" fill="#8a2010">Concrete sections break off; bolts shear; suspenders snap</text>

<!-- Row 9 — COLLAPSE -->
<rect x="736" y="523" width="336" height="22" fill="#8a1808" rx="2"/>
<text x="810" y="537" text-anchor="end" font-size="7.5" fill="#ffd0c0" font-weight="bold" class="mono">11:00 AM</text>
<text x="820" y="537" font-size="7.5" fill="#fff" font-weight="bold">COLLAPSE — 600-ft centre span falls into Puget Sound</text>

<!-- Row 10 — aftermath -->
<text x="810" y="554" text-anchor="end" font-size="7" fill="#3a5a8a" font-weight="bold" class="mono">Post-event</text>
<rect x="816" y="543" width="56" height="13" fill="#3a6a9a" rx="1" opacity="0.8"/>
<text x="880" y="554" font-size="7" fill="#3a5a8a">Farquharson films collapse — footage becomes iconic</text>

<!-- Row 11 — investigation -->
<text x="810" y="571" text-anchor="end" font-size="7" fill="#3a5a8a" font-weight="bold" class="mono">1941</text>
<rect x="816" y="560" width="56" height="13" fill="#3a6a9a" rx="1" opacity="0.8"/>
<text x="880" y="571" font-size="7" fill="#3a5a8a">Carmody board report — "excessive flexibility" cited</text>

<!-- Row 12 — replacement -->
<text x="810" y="588" text-anchor="end" font-size="7" fill="#2a5a2a" font-weight="bold" class="mono">1950</text>
<rect x="816" y="577" width="56" height="13" fill="#2a7a2a" rx="1" opacity="0.7"/>
<text x="880" y="588" font-size="7" fill="#2a5a2a">New Tacoma Narrows Bridge opens — open truss stiffening</text>

<!-- Legacy box -->
<rect x="736" y="598" width="336" height="106" fill="#f0e8d8" stroke="#c0a870" stroke-width="0.8" rx="3"/>
<rect x="736" y="598" width="336" height="14" fill="#3a2a18" rx="2"/>
<text x="904" y="609" text-anchor="middle" font-size="8.5" fill="#e0c880" font-weight="bold">Engineering Legacy</text>
<text x="742" y="624" font-size="7" fill="#4a3a20">Wind-tunnel testing became standard for all long-span bridge design.</text>
<text x="742" y="636" font-size="7" fill="#4a3a20">Open trusses replaced solid plate girders on replacement suspension bridges.</text>
<text x="742" y="648" font-size="7" fill="#4a3a20">Bronx-Whitestone, Deer Isle, Golden Gate all retrofitted with extra stiffening.</text>
<text x="742" y="660" font-size="7" fill="#4a3a20">AASHTO LRFD now requires buffeting, vortex, galloping, flutter &amp; divergence study.</text>
<text x="742" y="672" font-size="7" fill="#4a3a20">Federal bridge funding mandates 3-D wind-tunnel analysis for flexible spans.</text>
<line x1="742" y1="678" x2="1066" y2="678" stroke="#c0a870" stroke-width="0.6"/>
<text x="904" y="692" text-anchor="middle" font-size="7.5" fill="#2a6a2a" font-weight="bold">"Static strength is not enough — dynamic wind stability is essential."</text>

<!-- ═══════════════════════════════════════════════════ -->
<!-- FOOTER                                             -->
<!-- ═══════════════════════════════════════════════════ -->
<rect x="0" y="712" width="1080" height="30" fill="#1a1208"/>
<line x1="0" y1="712" x2="1080" y2="712" stroke="#c0a870" stroke-width="1.5"/>
<text x="540" y="724" text-anchor="middle" font-size="7.5" fill="#c8b880">The Tacoma Narrows failure permanently transformed how bridges are designed for aerodynamic stability worldwide.</text>
<text x="540" y="736" text-anchor="middle" font-size="7" fill="#8a7a50" font-style="italic">Sources: WSDOT TNB History · Encyclopedia Britannica · Cambridge J. Fluid Mech. (2022) · ASCE Historic Landmarks · Journal of Sound &amp; Vibration (2008) · AASHTO LRFD</text>
</svg>
