<?xml version="1.0" encoding="UTF-8"?>
<svg viewBox="0 0 1200 825" xmlns="http://www.w3.org/2000/svg" width="1200" height="825" font-family="Georgia, 'Times New Roman', serif">
<defs>
  <style>
    .label-sm { font-size: 9px; }
    .label-md { font-size: 11px; }
    .label-lg { font-size: 13px; }
    .bold { font-weight: bold; }
    .mono { font-family: 'Courier New', monospace; }
  </style>
  <marker id="arr-dark" viewBox="0 0 8 8" refX="7" refY="4" markerWidth="5" markerHeight="5" orient="auto">
    <path d="M0,0 L8,4 L0,8 Z" fill="#2a2218"/>
  </marker>
  <marker id="arr-red" viewBox="0 0 8 8" refX="7" refY="4" markerWidth="5" markerHeight="5" orient="auto">
    <path d="M0,0 L8,4 L0,8 Z" fill="#c0392b"/>
  </marker>
  <marker id="arr-amber" viewBox="0 0 8 8" refX="7" refY="4" markerWidth="5" markerHeight="5" orient="auto">
    <path d="M0,0 L8,4 L0,8 Z" fill="#c0a870"/>
  </marker>
  <marker id="arr-blue" viewBox="0 0 8 8" refX="7" refY="4" markerWidth="5" markerHeight="5" orient="auto">
    <path d="M0,0 L8,4 L0,8 Z" fill="#3a6a9a"/>
  </marker>
  <pattern id="flame-pat" x="0" y="0" width="8" height="8" patternUnits="userSpaceOnUse">
    <rect width="8" height="8" fill="#c0392b" opacity="0.18"/>
    <path d="M0,8 Q4,4 8,8" stroke="#e05030" stroke-width="0.8" fill="none"/>
  </pattern>
  <pattern id="grid" x="0" y="0" width="20" height="20" patternUnits="userSpaceOnUse">
    <path d="M 20 0 L 0 0 0 20" fill="none" stroke="#d8d0c0" stroke-width="0.3"/>
  </pattern>
</defs>

<rect width="1200" height="825" fill="#f5f0e8"/>
<rect width="1200" height="825" fill="url(#grid)" opacity="0.5"/>

<rect x="0" y="0" width="1200" height="58" fill="#1e1810"/>
<line x1="0" y1="58" x2="1200" y2="58" stroke="#c0a870" stroke-width="2"/>

<text x="600" y="24" text-anchor="middle" font-size="16" fill="#f0ece4" letter-spacing="4" font-weight="bold">SPACE SHUTTLE CHALLENGER — ENGINEERING FAILURE ANALYSIS</text>
<text x="600" y="46" text-anchor="middle" font-size="10" fill="#c0a870" letter-spacing="2">STS-51-L  ·  28 JANUARY 1986  ·  CAPE CANAVERAL, FL  ·  VEHICLE BREAKUP AT T+73 SECONDS</text>

<rect x="0" y="58" width="720" height="745" fill="#dce8f4"/>
<line x1="0" y1="799" x2="720" y2="799" stroke="#a09070" stroke-width="1" stroke-dasharray="6,4"/>
<text x="8" y="796" font-size="8" fill="#a09070" font-style="italic">Launch pad level</text>

<rect x="330" y="90" width="68" height="250" fill="#c87818" stroke="#2a2218" stroke-width="1.5" rx="4"/>
<path d="M 330,90 Q 364,72 398,90" fill="#d48828" stroke="#2a2218" stroke-width="1.5"/>
<path d="M 330,340 Q 364,358 398,340" fill="#b06810" stroke="#2a2218" stroke-width="1.5"/>
<text x="364" y="205" text-anchor="middle" font-size="9" fill="#2a1408" font-weight="bold">EXTERNAL</text>
<text x="364" y="218" text-anchor="middle" font-size="9" fill="#2a1408" font-weight="bold">TANK</text>
<text x="364" y="232" text-anchor="middle" font-size="8" fill="#3a2008">(LH₂ / LOX)</text>
<text x="364" y="244" text-anchor="middle" font-size="7" fill="#5a3010">1.6M lbs propellant</text>
<rect x="393" y="195" width="20" height="34" fill="url(#flame-pat)" rx="2"/>
<path d="M 398,195 Q 408,210 402,229" stroke="#c0392b" stroke-width="2.5" fill="none" opacity="0.9"/>

<rect x="416" y="104" width="52" height="228" fill="#8a8880" stroke="#2a2218" stroke-width="1.5" rx="3"/>
<path d="M 416,104 Q 442,88 468,104" fill="#9a9890" stroke="#2a2218" stroke-width="1.5"/>
<path d="M 416,332 Q 442,348 468,332" fill="#6a6860" stroke="#2a2218" stroke-width="1.5"/>
<path d="M 420,332 L 414,358 L 470,358 L 464,332 Z" fill="#4a4840" stroke="#2a2218" stroke-width="1"/>
<text x="442" y="205" text-anchor="middle" font-size="8" fill="#f0ece4" font-weight="bold">RIGHT</text>
<text x="442" y="217" text-anchor="middle" font-size="8" fill="#f0ece4" font-weight="bold">SRB</text>
<line x1="416" y1="248" x2="468" y2="248" stroke="#c0392b" stroke-width="3.5"/>
<path d="M 468,248 Q 490,234 482,218 Q 504,206 494,192 Q 514,180 504,166" stroke="#e05020" stroke-width="3" fill="none" stroke-linecap="round"/>
<path d="M 468,248 Q 492,242 484,228 Q 506,218 496,204" stroke="#f08030" stroke-width="1.8" fill="none" stroke-linecap="round" opacity="0.65"/>

<rect x="260" y="104" width="52" height="228" fill="#8a8880" stroke="#2a2218" stroke-width="1.5" rx="3"/>
<path d="M 260,104 Q 286,88 312,104" fill="#9a9890" stroke="#2a2218" stroke-width="1.5"/>
<path d="M 260,332 Q 286,348 312,332" fill="#6a6860" stroke="#2a2218" stroke-width="1.5"/>
<path d="M 264,332 L 258,358 L 314,358 L 308,332 Z" fill="#4a4840" stroke="#2a2218" stroke-width="1"/>
<text x="286" y="205" text-anchor="middle" font-size="8" fill="#f0ece4" font-weight="bold">LEFT</text>
<text x="286" y="217" text-anchor="middle" font-size="8" fill="#f0ece4" font-weight="bold">SRB</text>
<text x="286" y="233" text-anchor="middle" font-size="7" fill="#a0d080">(nominal)</text>

<rect x="292" y="76" width="100" height="34" fill="#ddd8cc" stroke="#2a2218" stroke-width="1.5" rx="3"/>
<path d="M 392,76 Q 416,90 392,110 Z" fill="#ccc8bc" stroke="#2a2218" stroke-width="1.5"/>
<rect x="372" y="80" width="17" height="8" fill="#4a6a8a" rx="1" stroke="#2a2218" stroke-width="0.8"/>
<path d="M 292,110 L 225,145 L 244,110 Z" fill="#c8c0b0" stroke="#2a2218" stroke-width="1.2"/>
<path d="M 392,110 L 392,145 L 292,110 Z" fill="#d0c8b8" stroke="#2a2218" stroke-width="1.2"/>
<path d="M 295,76 L 283,62 L 292,76 Z" fill="#c0b8a8" stroke="#2a2218" stroke-width="1"/>
<ellipse cx="308" cy="120" rx="7" ry="5" fill="#4a4838" stroke="#2a2218" stroke-width="1"/>
<ellipse cx="321" cy="122" rx="7" ry="5" fill="#4a4838" stroke="#2a2218" stroke-width="1"/>
<ellipse cx="334" cy="120" rx="7" ry="5" fill="#4a4838" stroke="#2a2218" stroke-width="1"/>
<text x="342" y="73" text-anchor="middle" font-size="9" fill="#2a2218" font-weight="bold">CHALLENGER ORBITER</text>

<rect x="18" y="95" width="156" height="30" fill="#1e1810" rx="2" opacity="0.92"/>
<text x="96" y="108" text-anchor="middle" font-size="8" fill="#c0a870" font-weight="bold" class="mono">T+0.678s</text>
<text x="96" y="120" text-anchor="middle" font-size="7.5" fill="#d0c8b8">First O-ring smoke visible</text>
<line x1="174" y1="110" x2="258" y2="220" stroke="#c0a870" stroke-width="1" stroke-dasharray="4,3" marker-end="url(#arr-amber)"/>

<rect x="18" y="140" width="156" height="30" fill="#3a1208" rx="2" opacity="0.92"/>
<text x="96" y="153" text-anchor="middle" font-size="8" fill="#e06040" font-weight="bold" class="mono">T+58.788s</text>
<text x="96" y="165" text-anchor="middle" font-size="7.5" fill="#d0c8b8">Continuous flame from joint</text>
<line x1="174" y1="158" x2="416" y2="248" stroke="#c0392b" stroke-width="1.2" stroke-dasharray="4,3" marker-end="url(#arr-red)"/>

<rect x="18" y="185" width="156" height="30" fill="#3a1208" rx="2" opacity="0.92"/>
<text x="96" y="198" text-anchor="middle" font-size="8" fill="#e06040" font-weight="bold" class="mono">T+64.660s</text>
<text x="96" y="210" text-anchor="middle" font-size="7.5" fill="#d0c8b8">ET hydrogen tank breach</text>
<line x1="174" y1="200" x2="330" y2="212" stroke="#c0392b" stroke-width="1.2" stroke-dasharray="4,3" marker-end="url(#arr-red)"/>

<rect x="18" y="230" width="156" height="30" fill="#5a0808" rx="2" opacity="0.92"/>
<text x="96" y="243" text-anchor="middle" font-size="8" fill="#ff8060" font-weight="bold" class="mono">T+73.162s</text>
<text x="96" y="255" text-anchor="middle" font-size="7.5" fill="#ffe0d8">Vehicle structural breakup</text>

<rect x="524" y="158" width="156" height="30" fill="#3a1208" rx="2" opacity="0.92"/>
<text x="602" y="171" text-anchor="middle" font-size="8.5" fill="#e06040" font-weight="bold">Flame plume path</text>
<text x="602" y="183" text-anchor="middle" font-size="7.5" fill="#d0c8b8">escaping field joint</text>
<line x1="524" y1="173" x2="506" y2="180" stroke="#c0392b" stroke-width="1" stroke-dasharray="3,3" marker-end="url(#arr-red)"/>

<rect x="524" y="236" width="156" height="30" fill="#5a0808" rx="2" opacity="0.92"/>
<text x="602" y="249" text-anchor="middle" font-size="8.5" fill="#ff6040" font-weight="bold">SRB Field Joint</text>
<text x="602" y="261" text-anchor="middle" font-size="7.5" fill="#d0c8b8">PRIMARY FAILURE POINT</text>
<line x1="524" y1="251" x2="470" y2="248" stroke="#c0392b" stroke-width="1.5" marker-end="url(#arr-red)"/>

<rect x="720" y="58" width="480" height="745" fill="#1e1810"/>
<line x1="720" y1="58" x2="720" y2="803" stroke="#c0a870" stroke-width="1.5"/>
<rect x="720" y="58" width="480" height="28" fill="#2a2218"/>
<text x="960" y="77" text-anchor="middle" font-size="10" fill="#c0a870" letter-spacing="2">KEY PARAMETERS &amp; CONTEXT</text>

<rect x="734" y="98" width="210" height="70" fill="#3a1208" stroke="#c0392b" stroke-width="1" rx="3"/>
<text x="839" y="116" text-anchor="middle" font-size="9" fill="#c0a870">Launch Temperature</text>
<text x="839" y="148" text-anchor="middle" font-size="28" fill="#e04030" font-weight="bold">28°F</text>
<text x="839" y="162" text-anchor="middle" font-size="9" fill="#c09080">−2°C  ·  Record cold for a launch</text>

<rect x="958" y="98" width="210" height="70" fill="#0e2a0e" stroke="#2a8a2a" stroke-width="1" rx="3"/>
<text x="1063" y="116" text-anchor="middle" font-size="9" fill="#c0a870">O-ring Qualified To</text>
<text x="1063" y="148" text-anchor="middle" font-size="28" fill="#40cc40" font-weight="bold">53°F</text>
<text x="1063" y="162" text-anchor="middle" font-size="9" fill="#90c890">12°C  ·  Design lower limit</text>

<rect x="734" y="182" width="434" height="36" fill="#2a1a08" stroke="#c0a870" stroke-width="0.8" rx="2"/>
<text x="951" y="196" text-anchor="middle" font-size="9" fill="#e0c080" font-weight="bold">25°F below qualification — O-ring stiffness increased 6× at launch temperature</text>
<text x="951" y="212" text-anchor="middle" font-size="8.5" fill="#c09060">Cold rubber loses resilience and cannot seat against joint gaps under ignition pressure</text>

<rect x="734" y="232" width="210" height="108" fill="#1a1a2a" stroke="#3a6a9a" stroke-width="1" rx="3"/>
<text x="839" y="249" text-anchor="middle" font-size="9" fill="#c0a870">Seven Crew Members</text>
<line x1="740" y1="253" x2="938" y2="253" stroke="#3a6a9a" stroke-width="0.6"/>
<text x="740" y="267" font-size="8" fill="#a0b8d0">Cdr. Francis Scobee</text>
<text x="740" y="280" font-size="8" fill="#a0b8d0">Plt. Michael Smith</text>
<text x="740" y="293" font-size="8" fill="#a0b8d0">MS  Ellison Onizuka</text>
<text x="740" y="306" font-size="8" fill="#a0b8d0">MS  Judith Resnik</text>
<text x="740" y="319" font-size="8" fill="#a0b8d0">MS  Ronald McNair</text>
<text x="740" y="332" font-size="8" fill="#a0b8d0">PS  Gregory Jarvis</text>
<text x="740" y="345" font-size="8" fill="#a0c8d8">PS  Christa McAuliffe  (Teacher in Space)</text>

<rect x="958" y="232" width="210" height="108" fill="#1e1810" stroke="#c0a870" stroke-width="0.8" rx="3"/>
<text x="1063" y="249" text-anchor="middle" font-size="9" fill="#c0a870">Technical Parameters</text>
<line x1="964" y1="253" x2="1162" y2="253" stroke="#c0a870" stroke-width="0.6"/>
<text x="964" y="268" font-size="7.5" fill="#d0c8b8">SRB thrust (each):   3.3M lbf</text>
<text x="964" y="282" font-size="7.5" fill="#d0c8b8">ET propellant:        1.6M lbs total</text>
<text x="964" y="296" font-size="7.5" fill="#d0c8b8">LH₂ stored at:        −423°F</text>
<text x="964" y="310" font-size="7.5" fill="#d0c8b8">LOX stored at:        −297°F</text>
<text x="964" y="324" font-size="7.5" fill="#d0c8b8">Breakup altitude:    46,000 ft</text>
<text x="964" y="338" font-size="7.5" fill="#c0392b">Breakup velocity:    Mach 1.92</text>

<rect x="0" y="803" width="1200" height="22" fill="#2a2218"/>
<line x1="0" y1="803" x2="1200" y2="803" stroke="#c0a870" stroke-width="1.5"/>
<line x1="0" y1="825" x2="1200" y2="825" stroke="#c0a870" stroke-width="1.5"/>
<text x="600" y="818" text-anchor="middle" font-size="9" fill="#c0a870" letter-spacing="3">DETAIL PANELS — MECHANISM &amp; CONTEXT OF FAILURE</text>
</svg>
