<?xml version="1.0" encoding="UTF-8"?>
<svg viewBox="0 0 1080 860" xmlns="http://www.w3.org/2000/svg"
     width="1080" height="860" font-family="Georgia,serif">
<defs>
  <style>
    .hotspot { cursor: pointer; }
    .hs-bg { opacity: 0; transition: opacity 0.15s; }
    .hotspot:hover .hs-bg { opacity: 1; }
    #tt { display: none; pointer-events: none; }
    #tt-bg { fill: #0d1008; opacity: 0.96; }
  </style>
  <marker id="arr" viewBox="0 0 8 8" refX="7" refY="4" markerWidth="5" markerHeight="5" orient="auto">
    <path d="M0,0 L8,4 L0,8 Z" fill="#2a2a18"/>
  </marker>
  <marker id="arrR" viewBox="0 0 8 8" refX="7" refY="4" markerWidth="5" markerHeight="5" orient="auto">
    <path d="M0,0 L8,4 L0,8 Z" fill="#c0392b"/>
  </marker>
  <marker id="arrY" viewBox="0 0 8 8" refX="7" refY="4" markerWidth="5" markerHeight="5" orient="auto">
    <path d="M0,0 L8,4 L0,8 Z" fill="#d4a017"/>
  </marker>
  <marker id="arrG" viewBox="0 0 8 8" refX="7" refY="4" markerWidth="5" markerHeight="5" orient="auto">
    <path d="M0,0 L8,4 L0,8 Z" fill="#3a7a3a"/>
  </marker>
  <radialGradient id="coreGlow" cx="50%" cy="50%" r="50%">
    <stop offset="0%" stop-color="#ff6a00" stop-opacity="0.85"/>
    <stop offset="40%" stop-color="#e03010" stop-opacity="0.55"/>
    <stop offset="100%" stop-color="#800000" stop-opacity="0.0"/>
  </radialGradient>
  <linearGradient id="reactorBody" x1="0" y1="0" x2="1" y2="0">
    <stop offset="0%" stop-color="#4a4a3a"/>
    <stop offset="50%" stop-color="#5a5a48"/>
    <stop offset="100%" stop-color="#3a3a2a"/>
  </linearGradient>
  <linearGradient id="fuelGrad" x1="0" y1="0" x2="0" y2="1">
    <stop offset="0%" stop-color="#b04010"/>
    <stop offset="50%" stop-color="#e06020"/>
    <stop offset="100%" stop-color="#803010"/>
  </linearGradient>
  <pattern id="grid" x="0" y="0" width="18" height="18" patternUnits="userSpaceOnUse">
    <rect width="18" height="18" fill="none"/>
    <path d="M0,0 L18,0 L18,18" stroke="#2a3020" stroke-width="0.5" fill="none"/>
  </pattern>
</defs>

<!-- TITLE BLOCK -->
<rect x="18" y="10" width="1044" height="50" fill="#0d1008" rx="2"/>
<text x="540" y="31" text-anchor="middle" font-size="14" fill="#e8e4d0" letter-spacing="3">RBMK-1000 REACTOR — CHERNOBYL UNIT 4 · ENGINEERING FAILURE ANALYSIS</text>
<text x="540" y="50" text-anchor="middle" font-size="9" fill="#9a8a40" letter-spacing="1.5">26 APRIL 1986 · 01:23:40 LOCAL TIME · PRIPYAT, UKRAINIAN SSR · UNCONTROLLED PROMPT-SUPERCRITICAL EXCURSION</text>

<!-- BACKGROUND GRID -->
<rect x="18" y="60" width="1044" height="295" fill="#0d1008" rx="1"/>
<rect x="18" y="60" width="1044" height="295" fill="url(#grid)" opacity="0.5"/>

<!-- ===== REACTOR CROSS SECTION ===== -->

<!-- Outer biological shielding -->
<rect x="260" y="70" width="400" height="270" rx="8" fill="#1e2018" stroke="#3a3a28" stroke-width="2"/>
<!-- Reactor vault walls -->
<rect x="290" y="85" width="340" height="240" rx="4" fill="#2a2a1e" stroke="#4a4a38" stroke-width="1.5"/>
<!-- Sand/concrete fill -->
<rect x="305" y="100" width="310" height="210" fill="#1a1a12" rx="2"/>

<!-- FUEL CHANNELS GRID (simplified 8×11 representation) -->
<g opacity="0.85">
  <!-- Row by row fuel channel dots — representing 1660 channels simplified -->
  <!-- We'll draw 77 circles in a 7×11 grid centered in the core -->
  <g transform="translate(385,135)">
    <!-- Core active zone: 7 cols × 11 rows of fuel channels -->
    <g fill="#5a4020" stroke="#7a6030" stroke-width="0.5">
      <!-- Col 0 -->
      <circle cx="0"   cy="0"  r="4.5"/><circle cx="0"  cy="16" r="4.5"/><circle cx="0"  cy="32" r="4.5"/>
      <circle cx="0"   cy="48" r="4.5"/><circle cx="0"  cy="64" r="4.5"/><circle cx="0"  cy="80" r="4.5"/>
      <circle cx="0"   cy="96" r="4.5"/><circle cx="0"  cy="112" r="4.5"/><circle cx="0" cy="128" r="4.5"/>
      <circle cx="0"   cy="144" r="4.5"/><circle cx="0" cy="160" r="4.5"/>
      <!-- Col 1 -->
      <circle cx="18"  cy="0"  r="4.5"/><circle cx="18" cy="16" r="4.5"/><circle cx="18" cy="32" r="4.5"/>
      <circle cx="18"  cy="48" r="4.5"/><circle cx="18" cy="64" r="4.5"/><circle cx="18" cy="80" r="4.5"/>
      <circle cx="18"  cy="96" r="4.5"/><circle cx="18" cy="112" r="4.5"/><circle cx="18" cy="128" r="4.5"/>
      <circle cx="18"  cy="144" r="4.5"/><circle cx="18" cy="160" r="4.5"/>
      <!-- Col 2 -->
      <circle cx="36"  cy="0"  r="4.5"/><circle cx="36" cy="16" r="4.5"/><circle cx="36" cy="32" r="4.5"/>
      <circle cx="36"  cy="48" r="4.5"/><circle cx="36" cy="64" r="4.5"/><circle cx="36" cy="80" r="4.5"/>
      <circle cx="36"  cy="96" r="4.5"/><circle cx="36" cy="112" r="4.5"/><circle cx="36" cy="128" r="4.5"/>
      <circle cx="36"  cy="144" r="4.5"/><circle cx="36" cy="160" r="4.5"/>
      <!-- Col 3 -->
      <circle cx="54"  cy="0"  r="4.5"/><circle cx="54" cy="16" r="4.5"/><circle cx="54" cy="32" r="4.5"/>
      <circle cx="54"  cy="48" r="4.5"/><circle cx="54" cy="64" r="4.5"/><circle cx="54" cy="80" r="4.5"/>
      <circle cx="54"  cy="96" r="4.5"/><circle cx="54" cy="112" r="4.5"/><circle cx="54" cy="128" r="4.5"/>
      <circle cx="54"  cy="144" r="4.5"/><circle cx="54" cy="160" r="4.5"/>
      <!-- Col 4 -->
      <circle cx="72"  cy="0"  r="4.5"/><circle cx="72" cy="16" r="4.5"/><circle cx="72" cy="32" r="4.5"/>
      <circle cx="72"  cy="48" r="4.5"/><circle cx="72" cy="64" r="4.5"/><circle cx="72" cy="80" r="4.5"/>
      <circle cx="72"  cy="96" r="4.5"/><circle cx="72" cy="112" r="4.5"/><circle cx="72" cy="128" r="4.5"/>
      <circle cx="72"  cy="144" r="4.5"/><circle cx="72" cy="160" r="4.5"/>
      <!-- Col 5 -->
      <circle cx="90"  cy="0"  r="4.5"/><circle cx="90" cy="16" r="4.5"/><circle cx="90" cy="32" r="4.5"/>
      <circle cx="90"  cy="48" r="4.5"/><circle cx="90" cy="64" r="4.5"/><circle cx="90" cy="80" r="4.5"/>
      <circle cx="90"  cy="96" r="4.5"/><circle cx="90" cy="112" r="4.5"/><circle cx="90" cy="128" r="4.5"/>
      <circle cx="90"  cy="144" r="4.5"/><circle cx="90" cy="160" r="4.5"/>
      <!-- Col 6 -->
      <circle cx="108" cy="0"  r="4.5"/><circle cx="108" cy="16" r="4.5"/><circle cx="108" cy="32" r="4.5"/>
      <circle cx="108" cy="48" r="4.5"/><circle cx="108" cy="64" r="4.5"/><circle cx="108" cy="80" r="4.5"/>
      <circle cx="108" cy="96" r="4.5"/><circle cx="108" cy="112" r="4.5"/><circle cx="108" cy="128" r="4.5"/>
      <circle cx="108" cy="144" r="4.5"/><circle cx="108" cy="160" r="4.5"/>
    </g>
    <!-- Breached/overheating channels (highlighted red) -->
    <circle cx="36" cy="80"  r="5.5" fill="#c03010" stroke="#ff6020" stroke-width="1.2"/>
    <circle cx="54" cy="64"  r="5.5" fill="#c03010" stroke="#ff6020" stroke-width="1.2"/>
    <circle cx="54" cy="80"  r="5.5" fill="#e04010" stroke="#ff8030" stroke-width="1.5"/>
    <circle cx="54" cy="96"  r="5.5" fill="#c03010" stroke="#ff6020" stroke-width="1.2"/>
    <circle cx="72" cy="80"  r="5.5" fill="#c03010" stroke="#ff6020" stroke-width="1.2"/>
    <circle cx="72" cy="64"  r="5.5" fill="#b02010" stroke="#ff4010" stroke-width="1.0"/>
    <circle cx="72" cy="96"  r="5.5" fill="#b02010" stroke="#ff4010" stroke-width="1.0"/>
  </g>
  <!-- Core glow overlay -->
  <ellipse cx="460" cy="215" rx="70" ry="90" fill="url(#coreGlow)" opacity="0.65"/>
</g>

<!-- CONTROL RODS — some withdrawn (dashed = absent) -->
<!-- Full rods (gray bars) -->
<g stroke="#6a6a5a" stroke-width="2" fill="none">
  <line x1="321" y1="100" x2="321" y2="310"/>
  <line x1="347" y1="100" x2="347" y2="310"/>
  <line x1="567" y1="100" x2="567" y2="310"/>
  <line x1="593" y1="100" x2="593" y2="310"/>
</g>
<!-- Withdrawn rods (dashed = only graphite tip in core) -->
<g stroke="#c0392b" stroke-width="1.5" stroke-dasharray="5,4" fill="none" opacity="0.75">
  <line x1="373" y1="100" x2="373" y2="155"/>
  <line x1="399" y1="100" x2="399" y2="155"/>
  <line x1="425" y1="100" x2="425" y2="155"/>
  <line x1="451" y1="100" x2="451" y2="155"/>
  <line x1="477" y1="100" x2="477" y2="155"/>
  <line x1="503" y1="100" x2="503" y2="155"/>
  <line x1="529" y1="100" x2="529" y2="155"/>
</g>
<!-- Graphite tips visible at bottom -->
<g fill="#4a7a4a" opacity="0.7">
  <rect x="370" y="285" width="6" height="25" rx="1"/>
  <rect x="396" y="285" width="6" height="25" rx="1"/>
  <rect x="422" y="285" width="6" height="25" rx="1"/>
  <rect x="448" y="285" width="6" height="25" rx="1"/>
  <rect x="474" y="285" width="6" height="25" rx="1"/>
  <rect x="500" y="285" width="6" height="25" rx="1"/>
  <rect x="526" y="285" width="6" height="25" rx="1"/>
</g>

<!-- UPPER REACTOR PLATE (1000t cover plate) -->
<rect x="270" y="85" width="380" height="16" fill="url(#reactorBody)" stroke="#5a5a48" stroke-width="1.5" rx="2"/>
<text x="460" y="97" text-anchor="middle" font-size="7.5" fill="#c0b880">UPPER BIOLOGICAL SHIELD — 1000 t</text>

<!-- LOWER BIOLOGICAL SHIELD -->
<rect x="270" y="309" width="380" height="18" fill="url(#reactorBody)" stroke="#5a5a48" stroke-width="1.5" rx="2"/>
<text x="460" y="321" text-anchor="middle" font-size="7.5" fill="#c0b880">LOWER BIOLOGICAL SHIELD</text>

<!-- DIMENSION ANNOTATIONS — core height 7m, diam 12m labels -->
<line x1="260" y1="101" x2="260" y2="309" stroke="#4a4a3a" stroke-width="0.8"/>
<line x1="256" y1="101" x2="264" y2="101" stroke="#4a4a3a" stroke-width="0.8"/>
<line x1="256" y1="309" x2="264" y2="309" stroke="#4a4a3a" stroke-width="0.8"/>
<text x="254" y="208" text-anchor="middle" font-size="8" fill="#888878" transform="rotate(-90,254,208)">7 m active core height</text>

<!-- STEAM SEPARATORS top-right -->
<rect x="660" y="110" width="55" height="30" rx="4" fill="#2a3028" stroke="#4a604a" stroke-width="1"/>
<text x="687" y="128" text-anchor="middle" font-size="7" fill="#80a880">Steam sep.</text>
<rect x="660" y="148" width="55" height="30" rx="4" fill="#2a3028" stroke="#4a604a" stroke-width="1"/>
<text x="687" y="166" text-anchor="middle" font-size="7" fill="#80a880">@7 MPa</text>
<line x1="660" y1="125" x2="650" y2="175" stroke="#4a8060" stroke-width="1.2" marker-end="url(#arrG)"/>
<line x1="660" y1="163" x2="650" y2="200" stroke="#3a6a9a" stroke-width="1.2" marker-end="url(#arr)"/>
<text x="636" y="173" font-size="7" fill="#80a880" text-anchor="end">steam</text>
<text x="636" y="198" font-size="7" fill="#6090b0" text-anchor="end">feedwater</text>

<!-- Turbine box -->
<rect x="660" y="195" width="55" height="25" rx="3" fill="#1e2818" stroke="#3a5838" stroke-width="1"/>
<text x="687" y="211" text-anchor="middle" font-size="7" fill="#70a870">Turbine</text>
<text x="687" y="220" text-anchor="middle" font-size="6.5" fill="#506850">(coast-down test)</text>
<line x1="660" y1="207" x2="650" y2="225" stroke="#c0392b" stroke-width="1.8" marker-end="url(#arrR)" stroke-dasharray="3,2"/>
<text x="648" y="222" text-anchor="end" font-size="7" fill="#c0392b">ECCS blocked</text>

<!-- HOTSPOTS -->
<g class="hotspot" id="hs1">
  <circle cx="460" cy="215" r="16" class="hs-bg" fill="#c0392b" opacity="0.15"/>
  <circle cx="460" cy="215" r="12" fill="#0d1008" opacity="0.8" stroke="#c0392b" stroke-width="1.5"/>
  <text x="460" y="219" text-anchor="middle" font-size="11" fill="#c0392b">①</text>
</g>
<g class="hotspot" id="hs2">
  <circle cx="450" cy="138" r="14" class="hs-bg" fill="#d4a017" opacity="0.18"/>
  <circle cx="450" cy="138" r="10" fill="#0d1008" opacity="0.8" stroke="#d4a017" stroke-width="1.5"/>
  <text x="450" y="142" text-anchor="middle" font-size="11" fill="#d4a017">②</text>
</g>
<g class="hotspot" id="hs3">
  <circle cx="322" cy="207" r="14" class="hs-bg" fill="#d4a017" opacity="0.18"/>
  <circle cx="322" cy="207" r="10" fill="#0d1008" opacity="0.8" stroke="#d4a017" stroke-width="1.5"/>
  <text x="322" y="211" text-anchor="middle" font-size="11" fill="#d4a017">③</text>
</g>
<g class="hotspot" id="hs4">
  <circle cx="460" cy="92" r="14" class="hs-bg" fill="#c0392b" opacity="0.15"/>
  <circle cx="460" cy="92" r="10" fill="#0d1008" opacity="0.8" stroke="#c0392b" stroke-width="1.5"/>
  <text x="460" y="96" text-anchor="middle" font-size="11" fill="#c0392b">④</text>
</g>

<!-- ANNOTATIONS — left side callouts -->
<!-- ORM callout -->
<line x1="260" y1="140" x2="185" y2="140" stroke="#d4a017" stroke-width="1" stroke-dasharray="3,2"/>
<line x1="185" y1="140" x2="185" y2="195" stroke="#d4a017" stroke-width="0.8"/>
<rect x="22" y="126" width="162" height="34" fill="#1a1808" stroke="#4a3a08" stroke-width="0.8" rx="2"/>
<text x="103" y="140" text-anchor="middle" font-size="8.5" fill="#d4a017" font-weight="bold">ORM: 8 rods (req. ≥ 15)</text>
<text x="103" y="153" text-anchor="middle" font-size="7.5" fill="#a09050">201 rods fully withdrawn</text>

<!-- Power callout -->
<line x1="260" y1="195" x2="185" y2="195" stroke="#c0392b" stroke-width="1" stroke-dasharray="3,2"/>
<rect x="22" y="182" width="162" height="46" fill="#1a0808" stroke="#4a1808" stroke-width="0.8" rx="2"/>
<text x="103" y="196" text-anchor="middle" font-size="8.5" fill="#c0392b" font-weight="bold">Power: 200 MW(th)</text>
<text x="103" y="208" text-anchor="middle" font-size="7.5" fill="#a07070">Rated: 3200 MW(th)</text>
<text x="103" y="220" text-anchor="middle" font-size="7.5" fill="#a07070">Test plan: 700–1000 MW(th)</text>

<!-- Void coeff callout -->
<line x1="660" y1="255" x2="720" y2="255" stroke="#a03000" stroke-width="1" stroke-dasharray="3,2"/>
<rect x="720" y="245" width="178" height="34" fill="#180800" stroke="#4a2000" stroke-width="0.8" rx="2"/>
<text x="809" y="258" text-anchor="middle" font-size="8.5" fill="#e06030" font-weight="bold">Void coeff: up to +5β_eff</text>
<text x="809" y="270" text-anchor="middle" font-size="7.5" fill="#a05030">Prompt supercritical threshold</text>
<circle cx="660" cy="255" r="3" fill="#c03000"/>

<!-- SECTION DIVIDER -->
<rect x="18" y="355" width="1044" height="18" fill="#0d1008" stroke="#2a2a18" stroke-width="1"/>
<text x="540" y="368" text-anchor="middle" font-size="9" fill="#9a8a40" letter-spacing="2">DETAIL PANELS — MECHANISM OF FAILURE</text>

<!-- ===== PANEL A: POWER EXCURSION & KINETICS ===== -->
<rect x="18"  y="373" width="338" height="310" fill="#0d1008" stroke="#2a2a18" stroke-width="1" rx="2"/>
<rect x="18"  y="373" width="338" height="22"  fill="#1a1008" rx="2"/>
<text x="187" y="388" text-anchor="middle" font-size="9.5" fill="#e8e4d0" letter-spacing="1">A — POWER EXCURSION TIMELINE</text>

<!-- Timeline vertical axis -->
<line x1="85" y1="410" x2="85" y2="640" stroke="#3a3a28" stroke-width="1"/>
<!-- Time ticks and events -->
<line x1="80" y1="420" x2="90" y2="420" stroke="#4a4a38" stroke-width="1"/>
<text x="76" y="423" text-anchor="end" font-size="8" fill="#a09070">00:28</text>
<rect x="95" y="413" width="240" height="20" fill="#1a1a12" rx="2"/>
<text x="100" y="427" font-size="8" fill="#908070">Power collapses to ~30 MW(th)</text>

<line x1="80" y1="455" x2="90" y2="455" stroke="#4a4a38" stroke-width="1"/>
<text x="76" y="458" text-anchor="end" font-size="8" fill="#a09070">01:03</text>
<rect x="95" y="448" width="240" height="20" fill="#1a1a12" rx="2"/>
<text x="100" y="462" font-size="8" fill="#908070">Stabilised at 200 MW(th) — too low</text>

<line x1="80" y1="490" x2="90" y2="490" stroke="#4a4a38" stroke-width="1"/>
<text x="76" y="493" text-anchor="end" font-size="8" fill="#d4a017">01:22:30</text>
<rect x="95" y="483" width="240" height="20" fill="#2a1e08" stroke="#4a3010" stroke-width="0.8" rx="2"/>
<text x="100" y="497" font-size="8" fill="#d4a017">ORM = 8 rods (min. required: 15)</text>

<line x1="80" y1="527" x2="90" y2="527" stroke="#c0392b" stroke-width="1.5"/>
<text x="76" y="530" text-anchor="end" font-size="8" fill="#c0392b" font-weight="bold">01:23:40</text>
<rect x="95" y="520" width="240" height="20" fill="#2a0808" stroke="#600808" stroke-width="1" rx="2"/>
<text x="100" y="534" font-size="8" fill="#c0392b" font-weight="bold">EPS-5/AZ-5 pressed → scram initiated</text>

<line x1="80" y1="557" x2="90" y2="557" stroke="#c0392b" stroke-width="2"/>
<text x="76" y="560" text-anchor="end" font-size="8" fill="#c0392b" font-weight="bold">+3 s</text>
<rect x="95" y="550" width="240" height="20" fill="#360808" stroke="#800808" stroke-width="1.2" rx="2"/>
<text x="100" y="564" font-size="8" fill="#ff6040" font-weight="bold">Power already >530 MW(th) &amp; rising</text>

<line x1="80" y1="590" x2="90" y2="590" stroke="#c0392b" stroke-width="2.5"/>
<text x="76" y="593" text-anchor="end" font-size="8" fill="#ff4020" font-weight="bold">+6.5 s</text>
<rect x="95" y="583" width="240" height="28" fill="#4a0808" stroke="#a00808" stroke-width="1.5" rx="2"/>
<text x="100" y="597" font-size="8" fill="#ff8060" font-weight="bold">~6200–12800 MW(th) estimated</text>
<text x="100" y="609" font-size="7.5" fill="#e06040">31–64× initial power (INSAG dynamic model)</text>

<line x1="80" y1="627" x2="90" y2="627" stroke="#c0392b" stroke-width="3"/>
<text x="76" y="630" text-anchor="end" font-size="8" fill="#ff2000" font-weight="bold">+7–10 s</text>
<rect x="95" y="620" width="240" height="28" fill="#600000" stroke="#c00000" stroke-width="2" rx="2"/>
<text x="100" y="634" font-size="8.5" fill="#ff4020" font-weight="bold">TWO EXPLOSIONS — reactor destroyed</text>
<text x="100" y="646" font-size="7.5" fill="#e06040">Steam burst + H₂/zirconium detonation</text>

<!-- Timeline line emphasising acceleration -->
<path d="M 85,420 Q 87,490 85,527 Q 83,545 75,560 Q 65,580 60,595" stroke="#c0392b" stroke-width="1.2" fill="none" opacity="0.5"/>

<!-- POWER RATE NOTE -->
<rect x="28" y="660" width="318" height="16" fill="#1a1008" stroke="#3a2a08" stroke-width="0.8" rx="2"/>
<text x="187" y="672" text-anchor="middle" font-size="7.5" fill="#a08848">Rate of rise: ~400–1000 MW/s by t+6 s · Rate ≈ (ρ−β)/Λ · P</text>

<!-- ===== PANEL B: ROD DESIGN FLAW ===== -->
<rect x="370" y="373" width="338" height="310" fill="#0d1008" stroke="#2a2a18" stroke-width="1" rx="2"/>
<rect x="370" y="373" width="338" height="22"  fill="#1a1008" rx="2"/>
<text x="539" y="388" text-anchor="middle" font-size="9.5" fill="#e8e4d0" letter-spacing="1">B — CONTROL ROD DESIGN FLAW</text>

<!-- Normal rod cross-section -->
<text x="450" y="408" text-anchor="middle" font-size="8.5" fill="#a09070">INSERTED (normal)</text>
<rect x="395" y="415" width="110" height="16" fill="#3a3a2a" stroke="#5a5a48" stroke-width="1"/>
<rect x="440" y="431" width="20" height="105" rx="1" fill="#6a6a58" stroke="#888878" stroke-width="0.8"/>
<rect x="440" y="431" width="20" height="35" rx="1" fill="#2e5f3e"/>
<text x="467" y="455" font-size="7.5" fill="#6a9a6a">absorber</text>
<rect x="440" y="466" width="20" height="8" fill="#888888" stroke="#aaaaaa" stroke-width="0.5" rx="1"/>
<text x="467" y="472" font-size="7" fill="#888878">1.25m gap</text>
<text x="467" y="482" font-size="7" fill="#888878">(water)</text>
<rect x="440" y="486" width="20" height="50" rx="1" fill="#4a7a4a"/>
<text x="467" y="516" font-size="7.5" fill="#80b080">graphite</text>
<text x="467" y="526" font-size="7.5" fill="#80b080">follower</text>

<!-- Arrow shows water-filled gap -->
<path d="M 440,470 L 428,500" stroke="#3a6a9a" stroke-width="1.5" marker-end="url(#arr)"/>
<text x="424" y="505" text-anchor="end" font-size="7" fill="#6090b8">H₂O</text>
<text x="424" y="515" text-anchor="end" font-size="7" fill="#6090b8">absorbs</text>

<!-- Withdrawn rod cross-section -->
<text x="600" y="408" text-anchor="middle" font-size="8.5" fill="#d4a017">BEING INSERTED (scram)</text>
<rect x="545" y="415" width="110" height="16" fill="#3a3a2a" stroke="#5a5a48" stroke-width="1"/>
<rect x="590" y="431" width="20" height="105" rx="1" fill="#1a1a12" stroke="#3a3a2a" stroke-width="0.5" stroke-dasharray="3,2"/>
<rect x="590" y="431" width="20" height="50" rx="1" fill="#4a7a4a" opacity="0.5"/>
<text x="617" y="458" font-size="7.5" fill="#80b080">graphite</text>
<text x="617" y="468" font-size="7.5" fill="#80b080">enters first</text>
<rect x="590" y="481" width="20" height="8" fill="#c08030" stroke="#e0a040" stroke-width="0.8" rx="1"/>
<text x="617" y="487" font-size="7" fill="#d4a017">replaces</text>
<text x="617" y="497" font-size="7" fill="#d4a017">neutron-abs.</text>
<text x="617" y="507" font-size="7" fill="#d4a017">water with</text>
<text x="617" y="517" font-size="7" fill="#d4a017">graphite ↑</text>

<!-- "POSITIVE SCRAM" label -->
<rect x="545" y="510" width="110" height="26" fill="#2a0808" stroke="#800808" stroke-width="1.2" rx="2"/>
<text x="600" y="523" text-anchor="middle" font-size="9" fill="#ff4020" font-weight="bold">POSITIVE SCRAM</text>
<text x="600" y="534" text-anchor="middle" font-size="7.5" fill="#c06040">adds reactivity first</text>

<!-- Vertical divider -->
<line x1="539" y1="403" x2="539" y2="555" stroke="#2a2a18" stroke-width="0.8" stroke-dasharray="4,3"/>

<!-- Rod speed callout -->
<rect x="380" y="555" width="318" height="35" fill="#1a1a12" stroke="#3a3a28" stroke-width="0.8" rx="2"/>
<text x="539" y="570" text-anchor="middle" font-size="8.5" fill="#d4a017" font-weight="bold">Rod speed: 0.4 m/s → full insertion in 18 seconds</text>
<text x="539" y="582" text-anchor="middle" font-size="7.5" fill="#808070">Post-accident retrofit: 12 s + 24 fast rods &gt;2β in &lt;2.5 s</text>

<!-- Swiss Cheese layer labels -->
<rect x="380" y="597" width="318" height="78" fill="#0f0f0a" stroke="#c0a040" stroke-width="0.8" rx="2"/>
<text x="539" y="612" text-anchor="middle" font-size="8.5" fill="#c0a040" font-weight="bold">Swiss Cheese — aligned holes</text>
<line x1="385" y1="617" x2="693" y2="617" stroke="#3a3010" stroke-width="0.5"/>
<text x="385" y="630" font-size="7.5" fill="#908860">Design:   +void coeff · positive scram · slow rods · weak containment</text>
<text x="385" y="642" font-size="7.5" fill="#908860">Operations: low ORM · 200 MW(th) test · ECCS isolated</text>
<text x="385" y="654" font-size="7.5" fill="#908860">Regulatory: no independent regulator · deficient safety culture</text>
<text x="385" y="666" font-size="7.5" fill="#c0392b">→ Shutdown system became the initiator of runaway</text>

<!-- ===== PANEL C: CONTAINMENT FAILURE & AFTERMATH ===== -->
<rect x="722" y="373" width="338" height="310" fill="#0d1008" stroke="#2a2a18" stroke-width="1" rx="2"/>
<rect x="722" y="373" width="338" height="22"  fill="#1a1008" rx="2"/>
<text x="891" y="388" text-anchor="middle" font-size="9.5" fill="#e8e4d0" letter-spacing="1">C — CONTAINMENT FAILURE &amp; LEGACY</text>

<!-- Containment capacity diagram -->
<text x="891" y="410" text-anchor="middle" font-size="8.5" fill="#a09070">Design limit vs. actual failure</text>

<!-- Two channel bars -->
<rect x="740" y="418" width="80" height="40" fill="#1a2a1a" stroke="#2a4a2a" stroke-width="1" rx="2"/>
<text x="780" y="433" text-anchor="middle" font-size="8" fill="#60a060">Rated</text>
<text x="780" y="447" text-anchor="middle" font-size="9" fill="#80c080" font-weight="bold">2 channels</text>

<!-- Actual failure - more bars -->
<rect x="840" y="418" width="80" height="40" fill="#2a1010" stroke="#6a1010" stroke-width="1.5" rx="2"/>
<text x="880" y="433" text-anchor="middle" font-size="8" fill="#c06060">Actual</text>
<text x="880" y="447" text-anchor="middle" font-size="9" fill="#ff4020" font-weight="bold">Multi-channel</text>

<!-- Channel rupture chain diagram -->
<rect x="945" y="418" width="105" height="40" fill="#2a2010" stroke="#5a4010" stroke-width="1" rx="2"/>
<text x="997" y="433" text-anchor="middle" font-size="8" fill="#d4a017">Retrofit (1986+)</text>
<text x="997" y="447" text-anchor="middle" font-size="8.5" fill="#e8c050">9–10 channels</text>

<!-- Failure sequence arrows -->
<text x="891" y="470" text-anchor="middle" font-size="8" fill="#808070">Pressure cascade:</text>
<rect x="730" y="478" width="110" height="18" fill="#1a1a12" rx="1"/>
<text x="785" y="491" text-anchor="middle" font-size="7.5" fill="#a09070">Fuel overheating</text>
<path d="M 785,496 L 785,508" stroke="#c0392b" stroke-width="1.2" marker-end="url(#arrR)"/>
<rect x="730" y="508" width="110" height="18" fill="#1a1a12" rx="1"/>
<text x="785" y="521" text-anchor="middle" font-size="7.5" fill="#a09070">Steam generation</text>
<path d="M 785,526 L 785,538" stroke="#c0392b" stroke-width="1.2" marker-end="url(#arrR)"/>
<rect x="730" y="538" width="110" height="18" fill="#1a1a12" rx="1"/>
<text x="785" y="551" text-anchor="middle" font-size="7.5" fill="#a09070">Channel rupture</text>
<path d="M 785,556 L 785,568" stroke="#c0392b" stroke-width="1.2" marker-end="url(#arrR)"/>
<rect x="730" y="568" width="110" height="18" fill="#2a0808" rx="1" stroke="#600808" stroke-width="0.8"/>
<text x="785" y="581" text-anchor="middle" font-size="7.5" fill="#ff4020">Lid lifted / rods jam</text>
<path d="M 785,586 L 785,598" stroke="#c0392b" stroke-width="1.5" marker-end="url(#arrR)"/>
<rect x="730" y="598" width="110" height="18" fill="#400000" rx="1" stroke="#900000" stroke-width="1"/>
<text x="785" y="611" text-anchor="middle" font-size="7.5" fill="#ff6040" font-weight="bold">EXPLOSION ×2</text>

<!-- International legacy -->
<rect x="856" y="478" width="190" height="138" fill="#0f1208" stroke="#2a3a20" stroke-width="0.8" rx="2"/>
<text x="951" y="494" text-anchor="middle" font-size="8.5" fill="#a0b870" font-weight="bold">International legacy</text>
<line x1="861" y1="499" x2="1041" y2="499" stroke="#2a3a18" stroke-width="0.5"/>
<text x="861" y="511" font-size="7.5" fill="#708a60">1986: Conv. on Early Notification</text>
<text x="861" y="523" font-size="7.5" fill="#708a60">1986: Conv. on Assistance</text>
<text x="861" y="535" font-size="7.5" fill="#708a60">1994: Convention on Nuclear Safety</text>
<text x="861" y="547" font-size="7.5" fill="#708a60">INSAG "safety culture" becomes</text>
<text x="861" y="559" font-size="7.5" fill="#708a60">international engineering standard</text>
<line x1="861" y1="564" x2="1041" y2="564" stroke="#2a3a18" stroke-width="0.5"/>
<text x="861" y="576" font-size="7.5" fill="#c0392b">RBMK fixes: +80–90 absorbers</text>
<text x="861" y="588" font-size="7.5" fill="#c0392b">ORM raised 8 → 43–48 rods</text>
<text x="861" y="600" font-size="7.5" fill="#c0392b">Fuel enriched 2.0% → 2.4% U-235</text>
<text x="861" y="612" font-size="7.5" fill="#c0392b">Pos. scram effect eliminated</text>

<!-- ===== FOOTER: 5 WHYS ===== -->
<rect x="18" y="683" width="1044" height="20" fill="#0d1008" stroke="#2a2a18" stroke-width="1"/>
<text x="540" y="697" text-anchor="middle" font-size="9" fill="#9a8a40" letter-spacing="2">ROOT CAUSE CHAIN — 5 WHYS</text>

<rect x="18" y="703" width="1044" height="140" fill="#0a0a08" rx="0"/>

<!-- 5 Why chain — horizontal boxes with arrows -->
<rect x="28"  y="715" width="172" height="50" fill="#1a0808" stroke="#400808" stroke-width="1" rx="2"/>
<text x="114" y="730" text-anchor="middle" font-size="8.5" fill="#e0c0c0" font-weight="bold">Why was Unit 4</text>
<text x="114" y="742" text-anchor="middle" font-size="8.5" fill="#e0c0c0" font-weight="bold">destroyed?</text>
<text x="114" y="757" text-anchor="middle" font-size="7.5" fill="#a08080">Pressure event → explosions</text>

<path d="M 200,740 L 218,740" stroke="#c0392b" stroke-width="1.5" marker-end="url(#arrR)"/>

<rect x="219" y="715" width="172" height="50" fill="#1a0a08" stroke="#481808" stroke-width="1" rx="2"/>
<text x="305" y="730" text-anchor="middle" font-size="8.5" fill="#e0c0a0" font-weight="bold">Why the pressure</text>
<text x="305" y="742" text-anchor="middle" font-size="8.5" fill="#e0c0a0" font-weight="bold">event?</text>
<text x="305" y="757" text-anchor="middle" font-size="7.5" fill="#a09070">Uncontrolled power excursion</text>

<path d="M 391,740 L 409,740" stroke="#c0392b" stroke-width="1.5" marker-end="url(#arrR)"/>

<rect x="410" y="715" width="172" height="50" fill="#1a1008" stroke="#4a2808" stroke-width="1" rx="2"/>
<text x="496" y="730" text-anchor="middle" font-size="8.5" fill="#e0c870" font-weight="bold">Why the power</text>
<text x="496" y="742" text-anchor="middle" font-size="8.5" fill="#e0c870" font-weight="bold">excursion?</text>
<text x="496" y="757" text-anchor="middle" font-size="7.5" fill="#a09870">+void coeff + positive scram</text>

<path d="M 582,740 L 600,740" stroke="#c0392b" stroke-width="1.5" marker-end="url(#arrR)"/>

<rect x="601" y="715" width="172" height="50" fill="#181808" stroke="#3a3808" stroke-width="1" rx="2"/>
<text x="687" y="730" text-anchor="middle" font-size="8.5" fill="#d0d870" font-weight="bold">Why the unstable</text>
<text x="687" y="742" text-anchor="middle" font-size="8.5" fill="#d0d870" font-weight="bold">core state?</text>
<text x="687" y="757" text-anchor="middle" font-size="7.5" fill="#909870">Test at 200MW · ORM = 8 rods</text>

<path d="M 773,740 L 791,740" stroke="#c0392b" stroke-width="1.5" marker-end="url(#arrR)"/>

<rect x="792" y="715" width="256" height="50" fill="#100c18" stroke="#301838" stroke-width="1.5" rx="2"/>
<text x="920" y="729" text-anchor="middle" font-size="8.5" fill="#c0a0e0" font-weight="bold">Why did the system permit it?</text>
<text x="920" y="741" text-anchor="middle" font-size="7.5" fill="#9070b0">Design defects undisclosed · No independent regulator</text>
<text x="920" y="753" text-anchor="middle" font-size="7.5" fill="#9070b0">Precursor events (Leningrad 1975, Ignalina 1983) ignored</text>
<text x="920" y="765" text-anchor="middle" font-size="7.5" fill="#c0392b">→ Deficient safety culture across design, ops, and govt</text>

<!-- BOTTOM LEGEND / SOURCES -->
<rect x="18" y="843" width="1044" height="12" fill="#0a0a08"/>
<text x="540" y="852" text-anchor="middle" font-size="7.5" fill="#5a5040">Sources: INSAG-7 (IAEA, 1992) · World Nuclear Association · Convention on Early Notification of a Nuclear Accident (IAEA, 1986) · Convention on Nuclear Safety (IAEA, 1994)</text>

<!-- LEGEND box -->
<rect x="22" y="707" width="1" height="1" fill="none"/>
<g transform="translate(22,708)">
  <rect width="190" height="0" fill="none"/>
</g>

<!-- TOOLTIP OVERLAY -->
<g id="tt">
  <rect id="tt-bg" x="0" y="0" width="330" height="90" rx="3" fill="#0d1008" opacity="0.96"/>
  <rect x="0" y="0" width="4" height="90" rx="1" fill="#c0392b"/>
  <text id="tt-title" x="12" y="18" font-size="10" fill="#d0c870" font-weight="bold"></text>
  <text id="tt-body"  x="12" y="34" font-size="8.5" fill="#b0a888"></text>
</g>

<script><![CDATA[
const TIPS = {
  hs1: {
    title: '① Core — positive void coefficient',
    lines: [
      'When cooling water flashed to steam, void fraction rose.',
      'Instead of shutting down (negative void = safe), RBMK',
      'added reactivity — up to +5β_eff on full steaming.',
      'Once ρ > β the core became prompt supercritical:',
      'power grew on μs timescale, not the slower delayed-n scale.'
    ]
  },
  hs2: {
    title: '② Control rods — withdrawn (ORM = 8)',
    lines: [
      '201 of 211 absorber rods were effectively out of the core.',
      'Operating rules required ≥15 rods (hard minimum).',
      'Below 50% power the procedure table required ≥30 rods.',
      'Operators did not appreciate the physical danger of ORM < 15;',
      'they were told ORM was an "efficiency" limit, not a safety one.'
    ]
  },
  hs3: {
    title: '③ Graphite-tipped rods — positive scram effect',
    lines: [
      'Each rod had a 1.25 m water gap above its graphite follower.',
      'On insertion, graphite entered the lower core first,',
      'replacing neutron-absorbing water with a moderator.',
      'This gave an initial burst of positive reactivity (~+1β)',
      'before absorption finally caught up — too late at 200 MW(th).'
    ]
  },
  hs4: {
    title: '④ Upper shield plate — 1000-tonne cover',
    lines: [
      'Steam-dump system was rated for only 2 channel ruptures.',
      'Multi-channel failure pressurised the reactor cavity.',
      'Overpressure lifted the 1000 t upper biological shield,',
      'jamming control rods at mid-insertion.',
      'Two explosions followed: steam-driven, then H₂/Zr detonation.'
    ]
  }
};

const tt      = document.getElementById('tt');
const ttBg    = document.getElementById('tt-bg');
const ttTitle = document.getElementById('tt-title');
const ttBody  = document.getElementById('tt-body');

function showTip(id, evt) {
  const tip = TIPS[id];
  if (!tip) return;
  ttTitle.textContent = tip.title;
  while (ttBody.firstChild) ttBody.removeChild(ttBody.firstChild);
  tip.lines.forEach((line, i) => {
    const t = document.createElementNS('http://www.w3.org/2000/svg', 'tspan');
    t.setAttribute('x', '12');
    t.setAttribute('dy', i === 0 ? '0' : '13');
    t.textContent = line;
    ttBody.appendChild(t);
  });
  const h = 28 + tip.lines.length * 13 + 8;
  ttBg.setAttribute('height', h);
  document.querySelector('#tt rect:nth-child(2)').setAttribute('height', h);
  const svg   = tt.ownerSVGElement;
  const pt    = svg.createSVGPoint();
  pt.x = evt.clientX; pt.y = evt.clientY;
  const svgPt = pt.matrixTransform(svg.getScreenCTM().inverse());
  let tx = svgPt.x + 16;
  let ty = svgPt.y - 16;
  if (tx + 340 > 1080) tx = svgPt.x - 350;
  if (ty < 0) ty = 4;
  tt.setAttribute('transform', 'translate(' + tx + ',' + ty + ')');
  tt.style.display = 'block';
}

['hs1','hs2','hs3','hs4'].forEach(id => {
  const el = document.getElementById(id);
  if (!el) return;
  el.addEventListener('mouseenter', e => showTip(id, e));
  el.addEventListener('mousemove',  e => showTip(id, e));
  el.addEventListener('mouseleave', () => { tt.style.display = 'none'; });
});
]]></script>
</svg>