<?xml version="1.0" encoding="UTF-8"?>
<svg viewBox="0 0 1080 742" xmlns="http://www.w3.org/2000/svg"
     width="1080" height="742" font-family="Georgia,serif">
<defs>
  <style>
    .hotspot { cursor: pointer; }
    .hs-bg { opacity: 0; transition: opacity 0.15s; }
    .hotspot:hover .hs-bg { opacity: 1; }
    #tt {
      display: none;
      pointer-events: none;
    }
    #tt-bg { fill: #1a1208; opacity: 0.95; }
    #tt-border { fill: #c0392b; }
  </style>
  <marker id="arr" viewBox="0 0 8 8" refX="7" refY="4" markerWidth="5" markerHeight="5" orient="auto">
    <path d="M0,0 L8,4 L0,8 Z" fill="#2a2218"/>
  </marker>
  <marker id="arrR" viewBox="0 0 8 8" refX="7" refY="4" markerWidth="5" markerHeight="5" orient="auto">
    <path d="M0,0 L8,4 L0,8 Z" fill="#c0392b"/>
  </marker>
  <marker id="arrB" viewBox="0 0 8 8" refX="7" refY="4" markerWidth="5" markerHeight="5" orient="auto">
    <path d="M0,0 L8,4 L0,8 Z" fill="#3a6a9a"/>
  </marker>
  <clipPath id="hullBody">
    <path d="M 72,198 Q 80,235 115,242 L 900,240 Q 930,235 950,205 L 950,150 L 890,140 L 840,133 L 210,133 L 155,138 L 105,155 Q 80,168 72,198 Z"/>
  </clipPath>
  <pattern id="water" x="0" y="0" width="24" height="14" patternUnits="userSpaceOnUse">
    <rect width="24" height="14" fill="#2e5f84"/>
    <path d="M0,7 Q6,3 12,7 Q18,11 24,7" stroke="#4a80a8" stroke-width="1.2" fill="none"/>
  </pattern>
</defs>

<g transform="scale(1, 0.8628)">

<!-- TITLE BLOCK -->
<rect x="18" y="10" width="1044" height="50" fill="#2a2218" rx="2"/>
<text x="540" y="31" text-anchor="middle" font-size="14" fill="#f0ece4" letter-spacing="3">RMS TITANIC — ENGINEERING FAILURE ANALYSIS</text>
<text x="540" y="50" text-anchor="middle" font-size="9" fill="#c0a870" letter-spacing="1.5">15 APRIL 1912 · NORTH ATLANTIC · 41°43′57″N 49°56′49″W · SANK IN 2 HR 40 MIN</text>

<!-- Sea background -->
<rect x="18" y="205" width="1044" height="105" fill="#cde0ef" rx="1" opacity="0.5"/>
<line x1="18" y1="205" x2="1062" y2="205" stroke="#3a6a9a" stroke-width="0.8" stroke-dasharray="7,4"/>
<text x="22" y="201" font-size="8" fill="#3a6a9a" font-style="italic">Sea level</text>

<!-- HULL FLOODED COMPARTMENT FILLS -->
<g clip-path="url(#hullBody)">
  <rect x="72"  y="133" width="58" height="110" fill="#2e5f84" opacity="0.80"/>
  <rect x="130" y="133" width="90" height="110" fill="#2e5f84" opacity="0.76"/>
  <rect x="220" y="133" width="88" height="110" fill="#2e5f84" opacity="0.72"/>
  <rect x="308" y="133" width="85" height="110" fill="#2e5f84" opacity="0.68"/>
  <rect x="393" y="133" width="80" height="110" fill="#7a3020" opacity="0.75"/>
  <rect x="473" y="133" width="72" height="110" fill="#7a3020" opacity="0.60"/>
  <rect x="545" y="155" width="62" height="88"  fill="#2e5f84" opacity="0.30"/>
  <path d="M72,162 Q88,157 103,162 Q118,167 130,162"  stroke="#6aaac8" stroke-width="1" fill="none"/>
  <path d="M130,158 Q158,153 185,158 Q210,163 220,158" stroke="#6aaac8" stroke-width="1" fill="none"/>
  <path d="M220,156 Q252,151 278,156 Q296,160 308,156" stroke="#6aaac8" stroke-width="1" fill="none"/>
  <path d="M308,154 Q338,149 365,154 Q380,158 393,154" stroke="#6aaac8" stroke-width="1" fill="none"/>
  <path d="M393,158 Q415,153 435,158 Q455,163 473,158" stroke="#f07050" stroke-width="1.2" fill="none"/>
  <path d="M473,161 Q496,156 510,161 Q528,166 545,161" stroke="#f07050" stroke-width="1.2" fill="none"/>
  <rect x="393" y="133" width="130" height="78" fill="url(#water)" opacity="0.35"/>
</g>

<!-- HULL OUTLINE -->
<path d="M 72,198 Q 80,235 115,242 L 900,240 Q 930,235 950,205 L 950,150 Q 935,140 900,138 L 850,133 L 210,133 L 155,138 L 105,155 Q 80,168 72,198 Z"
      fill="#b8b0a2" stroke="#2a2218" stroke-width="2" opacity="0.85"/>

<!-- WATERTIGHT BULKHEADS -->
<line x1="130" y1="133" x2="130" y2="242" stroke="#2a2218" stroke-width="1.2" opacity="0.6"/>
<line x1="220" y1="133" x2="220" y2="242" stroke="#2a2218" stroke-width="1.2" opacity="0.6"/>
<line x1="308" y1="133" x2="308" y2="242" stroke="#2a2218" stroke-width="1.2" opacity="0.6"/>
<line x1="393" y1="133" x2="393" y2="242" stroke="#2a2218" stroke-width="1.2" opacity="0.6"/>
<line x1="473" y1="133" x2="473" y2="242" stroke="#c0392b" stroke-width="2.2"/>
<line x1="545" y1="133" x2="545" y2="242" stroke="#c0392b" stroke-width="2.2" stroke-dasharray="5,3"/>
<line x1="607" y1="133" x2="607" y2="242" stroke="#2a2218" stroke-width="1" opacity="0.45"/>
<line x1="662" y1="133" x2="662" y2="242" stroke="#2a2218" stroke-width="1" opacity="0.45"/>
<line x1="718" y1="133" x2="718" y2="242" stroke="#2a2218" stroke-width="1" opacity="0.45"/>
<line x1="780" y1="133" x2="780" y2="242" stroke="#2a2218" stroke-width="1" opacity="0.45"/>
<line x1="840" y1="133" x2="840" y2="242" stroke="#2a2218" stroke-width="1" opacity="0.45"/>
<line x1="885" y1="133" x2="885" y2="242" stroke="#2a2218" stroke-width="1" opacity="0.45"/>

<!-- Bulkhead top caps -->
<rect x="469" y="133" width="8" height="28" fill="#c0392b" opacity="0.7" rx="1"/>
<rect x="541" y="133" width="8" height="28" fill="#c0392b" opacity="0.7" rx="1"/>
<path d="M 465,143 Q 479,136 493,140 Q 507,144 521,138 Q 535,132 546,138"
      stroke="#2e5f84" stroke-width="2" fill="none" marker-end="url(#arrB)" opacity="0.85"/>

<!-- SUPERSTRUCTURE -->
<rect x="210" y="108" width="640" height="25" fill="#c8bca8" stroke="#2a2218" stroke-width="1.2"/>
<rect x="210" y="95"  width="115" height="13" fill="#b8ac9a" stroke="#2a2218" stroke-width="1"/>
<rect x="210" y="84"  width="38"  height="24" fill="#a89c8a" stroke="#2a2218" stroke-width="1"/>

<!-- FUNNELS -->
<rect x="318" y="64" width="26" height="44" fill="#c8992a" stroke="#2a2218" stroke-width="1.2" rx="2"/>
<rect x="315" y="61" width="32" height="7"  fill="#2a2218" rx="1"/>
<rect x="418" y="62" width="26" height="46" fill="#c8992a" stroke="#2a2218" stroke-width="1.2" rx="2"/>
<rect x="415" y="59" width="32" height="7"  fill="#2a2218" rx="1"/>
<rect x="518" y="62" width="26" height="46" fill="#c8992a" stroke="#2a2218" stroke-width="1.2" rx="2"/>
<rect x="515" y="59" width="32" height="7"  fill="#2a2218" rx="1"/>
<rect x="618" y="65" width="26" height="43" fill="#b07820" stroke="#2a2218" stroke-width="1.2" rx="2"/>
<rect x="615" y="62" width="32" height="7"  fill="#2a2218" rx="1"/>
<text x="331" y="58" text-anchor="middle" font-size="7" fill="#5a4020">F1</text>
<text x="431" y="56" text-anchor="middle" font-size="7" fill="#5a4020">F2</text>
<text x="531" y="56" text-anchor="middle" font-size="7" fill="#5a4020">F3</text>
<text x="631" y="59" text-anchor="middle" font-size="7" fill="#5a4020">F4</text>

<!-- MASTS -->
<line x1="190" y1="52" x2="205" y2="108" stroke="#2a2218" stroke-width="2.2"/>
<line x1="790" y1="54" x2="778" y2="108" stroke="#2a2218" stroke-width="2.2"/>
<ellipse cx="190" cy="72" rx="9" ry="5" fill="#aaa298" stroke="#2a2218" stroke-width="1"/>

<!-- STRUCTURAL BREAK AXIS -->
<line x1="590" y1="54" x2="590" y2="248" stroke="#c0392b" stroke-width="2.8" stroke-dasharray="6,3" opacity="0.92"/>
<path d="M 583,133 L 587,143 L 581,152 L 587,161 L 581,170 L 587,179 L 583,188" stroke="#c0392b" stroke-width="2.2" fill="none"/>
<path d="M 597,133 L 593,143 L 599,152 L 593,161 L 599,170 L 593,179 L 597,188" stroke="#c0392b" stroke-width="2.2" fill="none"/>

<!-- ICEBERG CONTACT ZONE -->
<line x1="72"  y1="212" x2="442" y2="212" stroke="#c0392b" stroke-width="2" stroke-dasharray="4,2"/>
<line x1="72"  y1="254" x2="442" y2="254" stroke="#c0392b" stroke-width="1.2" marker-start="url(#arrR)" marker-end="url(#arrR)"/>
<text x="257" y="265" text-anchor="middle" font-size="8.5" fill="#c0392b">~90 m (300 ft) scrape — starboard side</text>

<!-- Iceberg -->
<path d="M 195,275 L 225,310 L 248,304 L 265,320 L 285,306 L 305,316 L 318,298 L 295,280 L 272,289 L 248,272 L 222,282 Z"
      fill="#d8ecf4" stroke="#5a8aaa" stroke-width="1.2" opacity="0.88"/>
<path d="M 222,282 L 238,295 L 258,290 L 272,302 L 285,290" stroke="#90b8cc" stroke-width="1" fill="none"/>
<text x="255" y="330" text-anchor="middle" font-size="8" fill="#3a6a9a" font-style="italic">iceberg</text>

<!-- COMPARTMENT LABELS -->
<text x="101" y="194" text-anchor="middle" font-size="7" fill="#eee8dc" font-weight="bold">FORE</text>
<text x="101" y="203" text-anchor="middle" font-size="7" fill="#eee8dc">PEAK</text>
<text x="175" y="196" text-anchor="middle" font-size="7" fill="#eee8dc">HOLD 1</text>
<text x="264" y="196" text-anchor="middle" font-size="7" fill="#eee8dc">HOLD 2</text>
<text x="350" y="196" text-anchor="middle" font-size="7" fill="#eee8dc">HOLD 3</text>
<text x="433" y="194" text-anchor="middle" font-size="7" fill="#f0c0a0" font-weight="bold">BR. 6</text>
<text x="433" y="203" text-anchor="middle" font-size="6.5" fill="#f0c0a0">BREACHED</text>
<text x="509" y="194" text-anchor="middle" font-size="7" fill="#f0c0a0" font-weight="bold">BR. 5</text>
<text x="509" y="203" text-anchor="middle" font-size="6.5" fill="#f0c0a0">BREACHED</text>
<text x="576" y="196" text-anchor="middle" font-size="6.5" fill="#4a4030">BR. 4</text>
<text x="634" y="196" text-anchor="middle" font-size="6.5" fill="#4a4030">BR. 3</text>
<text x="690" y="196" text-anchor="middle" font-size="6.5" fill="#4a4030">BR. 2</text>
<text x="749" y="196" text-anchor="middle" font-size="6.5" fill="#4a4030">ENG.</text>
<text x="812" y="196" text-anchor="middle" font-size="6.5" fill="#4a4030">REC.ENG.</text>
<text x="862" y="196" text-anchor="middle" font-size="6.5" fill="#4a4030">TURB.</text>
<text x="915" y="196" text-anchor="middle" font-size="6.5" fill="#4a4030">AFT</text>
<text x="127" y="131" text-anchor="middle" font-size="7" fill="#5a4a30">A</text>
<text x="217" y="131" text-anchor="middle" font-size="7" fill="#5a4a30">B</text>
<text x="305" y="131" text-anchor="middle" font-size="7" fill="#5a4a30">C</text>
<text x="390" y="131" text-anchor="middle" font-size="7" fill="#5a4a30">D</text>
<text x="470" y="130" text-anchor="middle" font-size="7.5" fill="#c0392b" font-weight="bold">E</text>
<text x="542" y="130" text-anchor="middle" font-size="7.5" fill="#c0392b" font-weight="bold">F</text>

<!-- FLOOD RATE BOX -->
<rect x="22" y="270" width="148" height="38" fill="#2a2218" rx="2"/>
<text x="96" y="284" text-anchor="middle" font-size="8" fill="#c0a870">Flood ingress rate:</text>
<text x="96" y="300" text-anchor="middle" font-size="13" fill="#ffffff" font-weight="bold">~400 t / min</text>

<!-- LEGEND -->
<rect x="22" y="65" width="148" height="88" fill="#2a2218" opacity="0.88" rx="2"/>
<text x="96" y="79" text-anchor="middle" font-size="8" fill="#c0a870" letter-spacing="1.5">LEGEND</text>
<rect x="30" y="84" width="12" height="9" fill="#2e5f84" opacity="0.78"/>
<text x="47" y="93" font-size="8" fill="#f0ece4">Flooded compartment</text>
<rect x="30" y="98" width="12" height="9" fill="#7a3020" opacity="0.75"/>
<text x="47" y="107" font-size="8" fill="#f0ece4">Active breach (BR5/6)</text>
<line x1="30" y1="118" x2="42" y2="118" stroke="#c0392b" stroke-width="2"/>
<text x="47" y="122" font-size="8" fill="#f0ece4">Critical bulkhead (E, F)</text>
<line x1="30" y1="133" x2="42" y2="133" stroke="#c0392b" stroke-width="2.5" stroke-dasharray="5,3"/>
<text x="47" y="137" font-size="8" fill="#f0ece4">Structural break axis</text>
<text x="47" y="150" font-size="8" fill="#c0a870">Hover ①–⑥ for detail</text>

<!-- HOTSPOTS -->
<g class="hotspot" id="hs1">
  <circle cx="280" cy="218" r="13" class="hs-bg" fill="#c0392b" opacity="0.18"/>
  <circle cx="280" cy="218" r="10" fill="#2a2218" opacity="0.75" stroke="#c0392b" stroke-width="1.5"/>
  <text x="280" y="222" text-anchor="middle" font-size="10" fill="#c0392b">①</text>
</g>
<g class="hotspot" id="hs2">
  <circle cx="150" cy="233" r="13" class="hs-bg" fill="#c0392b" opacity="0.18"/>
  <circle cx="150" cy="233" r="10" fill="#2a2218" opacity="0.75" stroke="#c0392b" stroke-width="1.5"/>
  <text x="150" y="237" text-anchor="middle" font-size="10" fill="#c0392b">②</text>
</g>
<g class="hotspot" id="hs3">
  <circle cx="498" cy="152" r="13" class="hs-bg" fill="#e67e22" opacity="0.18"/>
  <circle cx="498" cy="152" r="10" fill="#2a2218" opacity="0.75" stroke="#e67e22" stroke-width="1.5"/>
  <text x="498" y="156" text-anchor="middle" font-size="10" fill="#e67e22">③</text>
</g>
<g class="hotspot" id="hs4">
  <circle cx="570" cy="185" r="13" class="hs-bg" fill="#3a6a9a" opacity="0.2"/>
  <circle cx="570" cy="185" r="10" fill="#2a2218" opacity="0.75" stroke="#3a6a9a" stroke-width="1.5"/>
  <text x="570" y="189" text-anchor="middle" font-size="10" fill="#6aaac8">④</text>
</g>
<g class="hotspot" id="hs5">
  <circle cx="590" cy="70" r="13" class="hs-bg" fill="#c0392b" opacity="0.18"/>
  <circle cx="590" cy="70" r="10" fill="#2a2218" opacity="0.75" stroke="#c0392b" stroke-width="1.5"/>
  <text x="590" y="74" text-anchor="middle" font-size="10" fill="#c0392b">⑤</text>
</g>
<g class="hotspot" id="hs6">
  <circle cx="115" cy="205" r="13" class="hs-bg" fill="#c0392b" opacity="0.18"/>
  <circle cx="115" cy="205" r="10" fill="#2a2218" opacity="0.75" stroke="#c0a060" stroke-width="1.5"/>
  <text x="115" y="209" text-anchor="middle" font-size="10" fill="#c0a060">⑥</text>
</g>

<!-- SECTION DIVIDER -->
<rect x="18" y="336" width="1044" height="18" fill="#2a2218"/>
<text x="540" y="349" text-anchor="middle" font-size="9" fill="#c0a870" letter-spacing="2">DETAIL PANELS — MECHANISM OF FAILURE</text>

<!-- PANEL A: RIVET FAILURE -->
<rect x="18"  y="354" width="338" height="330" fill="#faf6ee" stroke="#c8bca8" stroke-width="1" rx="2"/>
<rect x="18"  y="354" width="338" height="22"  fill="#3a2e1e" rx="2"/>
<text x="187" y="369" text-anchor="middle" font-size="9.5" fill="#f0ece4" letter-spacing="1">A — RIVET FAILURE MECHANISM</text>
<text x="108" y="395" text-anchor="middle" font-size="8.5" fill="#2a2218">Midship rivet — steel, low slag</text>
<rect x="38" y="400" width="140" height="18" fill="#8a9898" stroke="#2a2218" stroke-width="1"/>
<rect x="38" y="428" width="140" height="18" fill="#8a9898" stroke="#2a2218" stroke-width="1"/>
<ellipse cx="108" cy="408" rx="11" ry="6" fill="#9a7a5a" stroke="#2a2218" stroke-width="1"/>
<rect x="100" y="408" width="16" height="22" fill="#8a6a48" stroke="#2a2218" stroke-width="0.8"/>
<ellipse cx="108" cy="430" rx="11" ry="6" fill="#9a7a5a" stroke="#2a2218" stroke-width="1"/>
<path d="M 165,419 L 192,419" stroke="#2a7a2a" stroke-width="2" marker-end="url(#arr)"/>
<text x="178" y="415" text-anchor="middle" font-size="7.5" fill="#2a7a2a">Force</text>
<ellipse cx="218" cy="408" rx="14" ry="6" fill="#9a7a5a" stroke="#2a2218" stroke-width="1"/>
<rect x="209" y="408" width="18" height="22" fill="#8a6a48" stroke="#2a2218" stroke-width="0.8"/>
<ellipse cx="218" cy="430" rx="14" ry="6" fill="#9a7a5a" stroke="#2a2218" stroke-width="1"/>
<text x="218" y="444" text-anchor="middle" font-size="7.5" fill="#2a7a2a">Deforms — holds</text>
<line x1="28" y1="460" x2="346" y2="460" stroke="#c8bca8" stroke-width="0.8" stroke-dasharray="4,3"/>
<text x="187" y="476" text-anchor="middle" font-size="8.5" fill="#c0392b">Bow rivet — wrought iron, HIGH SLAG</text>
<text x="187" y="488" text-anchor="middle" font-size="7.5" fill="#c0392b" font-style="italic">Slag content: 9.3% · Acceptable max: 2–3%</text>
<rect x="38" y="495" width="140" height="18" fill="#8a9898" stroke="#2a2218" stroke-width="1"/>
<rect x="38" y="522" width="140" height="18" fill="#8a9898" stroke="#2a2218" stroke-width="1"/>
<ellipse cx="108" cy="503" rx="11" ry="6" fill="#9a7a5a" stroke="#2a2218" stroke-width="1"/>
<rect x="100" y="503" width="16" height="21" fill="#8a6a48" stroke="#2a2218" stroke-width="0.8"/>
<ellipse cx="105" cy="509" rx="3.5" ry="2" fill="#aaa8a0" opacity="0.9"/>
<ellipse cx="112" cy="516" rx="3"   ry="2" fill="#aaa8a0" opacity="0.9"/>
<ellipse cx="106" cy="522" rx="2.5" ry="1.8" fill="#aaa8a0" opacity="0.9"/>
<ellipse cx="108" cy="524" rx="11" ry="6" fill="#9a7a5a" stroke="#2a2218" stroke-width="1"/>
<text x="124" y="511" font-size="7" fill="#888">← MnS slag</text>
<text x="124" y="519" font-size="7" fill="#888">   inclusions</text>
<path d="M 165,513 L 192,513" stroke="#c0392b" stroke-width="2" marker-end="url(#arrR)"/>
<text x="178" y="509" text-anchor="middle" font-size="7.5" fill="#c0392b">Impact</text>
<rect x="196" y="495" width="135" height="48" fill="#ffe8e0" stroke="#c0392b" stroke-width="0.8" rx="2"/>
<text x="263" y="510" text-anchor="middle" font-size="7.5" fill="#c0392b" font-weight="bold">Rivet shears along slag plane</text>
<text x="263" y="522" text-anchor="middle" font-size="7.5" fill="#5a2010">Plates spring apart.</text>
<text x="263" y="534" text-anchor="middle" font-size="7.5" fill="#5a2010">Water enters seam.</text>
<rect x="38" y="552" width="62"  height="18" fill="#8a9898" stroke="#2a2218" stroke-width="1"/>
<rect x="115" y="555" width="63" height="18" fill="#8a9898" stroke="#2a2218" stroke-width="1"/>
<path d="M 100,550 L 100,574 Q 107,565 115,574 L 115,550" fill="#cde8f4" stroke="#3a6a9a" stroke-width="0.8"/>
<text x="107" y="584" text-anchor="middle" font-size="7.5" fill="#3a6a9a">seam gap</text>
<rect x="28"  y="600" width="318" height="78" fill="#f0e8d8" stroke="#c0a870" stroke-width="0.8" rx="2"/>
<text x="187" y="615" text-anchor="middle" font-size="8.5" fill="#2a2218" font-weight="bold">Key finding — NIST metallurgical study, 1996</text>
<line x1="33" y1="620" x2="333" y2="620" stroke="#c0a870" stroke-width="0.5"/>
<text x="187" y="633" text-anchor="middle" font-size="7.5" fill="#4a3a20">No single large gash. Multiple rivet-head failures</text>
<text x="187" y="644" text-anchor="middle" font-size="7.5" fill="#4a3a20">opened seams across 6 hull sections totalling</text>
<text x="187" y="655" text-anchor="middle" font-size="7.5" fill="#c0392b" font-weight="bold">approximately 1.1 m² (12 sq ft) of total opening.</text>
<text x="187" y="666" text-anchor="middle" font-size="7.5" fill="#4a3a20">Steel rivets midship would likely have held.</text>

<!-- PANEL B: BULKHEAD DESIGN FLAW -->
<rect x="370" y="354" width="338" height="330" fill="#faf6ee" stroke="#c8bca8" stroke-width="1" rx="2"/>
<rect x="370" y="354" width="338" height="22"  fill="#3a2e1e" rx="2"/>
<text x="539" y="369" text-anchor="middle" font-size="9.5" fill="#f0ece4" letter-spacing="1">B — BULKHEAD DESIGN FAILURE</text>
<text x="539" y="390" text-anchor="middle" font-size="8" fill="#5a4a28">Cross-section — bulkhead E (critical)</text>
<line x1="385" y1="402" x2="695" y2="402" stroke="#2a2218" stroke-width="1.5"/>
<line x1="385" y1="428" x2="695" y2="428" stroke="#2a2218" stroke-width="1.5"/>
<line x1="385" y1="454" x2="695" y2="454" stroke="#2a2218" stroke-width="1.5"/>
<line x1="385" y1="480" x2="695" y2="480" stroke="#2a2218" stroke-width="1.5"/>
<line x1="385" y1="506" x2="695" y2="506" stroke="#2a2218" stroke-width="1.5"/>
<line x1="385" y1="532" x2="695" y2="532" stroke="#2a2218" stroke-width="1.5"/>
<line x1="385" y1="558" x2="695" y2="558" stroke="#2a2218" stroke-width="2"/>
<text x="700" y="406" font-size="8" fill="#2a2218">Boat Deck</text>
<text x="700" y="432" font-size="8" fill="#2a2218">A Deck</text>
<text x="700" y="458" font-size="8" fill="#2a2218">B Deck</text>
<text x="700" y="484" font-size="8" fill="#2a2218">C Deck</text>
<text x="700" y="510" font-size="8" fill="#2a2218">D Deck</text>
<text x="700" y="536" font-size="8" fill="#c0392b" font-weight="bold">E Deck ← bulkhead max</text>
<text x="700" y="562" font-size="7.5" fill="#2a2218">Tank top</text>
<rect x="393" y="454" width="130" height="104" fill="#2e5f84" opacity="0.50"/>
<rect x="393" y="454" width="130" height="78"  fill="url(#water)" opacity="0.45"/>
<text x="458" y="495" text-anchor="middle" font-size="8.5" fill="#e0f0ff" font-weight="bold">Boiler Rm. 5</text>
<text x="458" y="508" text-anchor="middle" font-size="7.5" fill="#c0ddf5">FLOODED</text>
<text x="590" y="495" text-anchor="middle" font-size="8.5" fill="#3a3028">Boiler Rm. 4</text>
<text x="590" y="508" text-anchor="middle" font-size="7.5" fill="#888">(no direct breach)</text>
<rect x="526" y="532" width="10" height="26" fill="#c0392b" rx="1"/>
<line x1="531" y1="402" x2="531" y2="532" stroke="#c0392b" stroke-width="1.5" stroke-dasharray="3,3" opacity="0.5"/>
<text x="545" y="525" font-size="7.5" fill="#c0392b" font-weight="bold">← Bulkhead top</text>
<text x="545" y="535" font-size="7.5" fill="#c0392b">at E-deck only</text>
<line x1="393" y1="532" x2="523" y2="532" stroke="#6aaac8" stroke-width="2.5"/>
<path d="M 490,526 Q 508,517 526,520 Q 544,524 560,516 Q 575,510 590,515"
      stroke="#2e5f84" stroke-width="2.2" fill="none" marker-end="url(#arrB)"/>
<text x="540" y="507" text-anchor="middle" font-size="7.5" fill="#2e5f84" font-weight="bold">water overflows →</text>
<rect x="380" y="572" width="318" height="104" fill="#f0e8d8" stroke="#c0a870" stroke-width="0.8" rx="2"/>
<text x="539" y="588" text-anchor="middle" font-size="9" fill="#2a2218" font-weight="bold">Design specification failure</text>
<line x1="385" y1="593" x2="693" y2="593" stroke="#c0a870" stroke-width="0.6"/>
<text x="539" y="606" text-anchor="middle" font-size="7.5" fill="#4a3a20">Bulkheads reached E-deck (2nd from bottom) at best.</text>
<text x="539" y="618" text-anchor="middle" font-size="7.5" fill="#4a3a20">No transverse watertight deck connected their tops.</text>
<text x="539" y="630" text-anchor="middle" font-size="7.5" fill="#4a3a20">Rated to survive: 4 compartments flooded.</text>
<text x="539" y="642" text-anchor="middle" font-size="7.5" fill="#c0392b" font-weight="bold">Actual breach: 5 compartments + progressive cascade.</text>
<text x="539" y="654" text-anchor="middle" font-size="7.5" fill="#4a3a20">Designer Carlisle proposed full-height bulkheads;</text>
<text x="539" y="666" text-anchor="middle" font-size="7.5" fill="#4a3a20">overruled on cost grounds by White Star Line.</text>

<!-- PANEL C: STRUCTURAL BREAKUP AND STEEL -->
<rect x="722" y="354" width="338" height="330" fill="#faf6ee" stroke="#c8bca8" stroke-width="1" rx="2"/>
<rect x="722" y="354" width="338" height="22"  fill="#3a2e1e" rx="2"/>
<text x="891" y="369" text-anchor="middle" font-size="9.5" fill="#f0ece4" letter-spacing="1">C — STRUCTURAL BREAKUP &amp; STEEL</text>
<text x="891" y="392" text-anchor="middle" font-size="8.5" fill="#2a2218">Hogging stress state — approx. 2:17 AM</text>
<path d="M 736,460 Q 760,480 810,474 L 858,464" stroke="#2a2218" stroke-width="2.5" fill="none"/>
<path d="M 870,464 L 918,448 Q 940,442 950,440" stroke="#2a2218" stroke-width="2.5" fill="none"/>
<line x1="730" y1="460" x2="1050" y2="460" stroke="#3a6a9a" stroke-width="0.8" stroke-dasharray="5,3"/>
<text x="735" y="456" font-size="7.5" fill="#3a6a9a" font-style="italic">sea level</text>
<line x1="862" y1="444" x2="868" y2="478" stroke="#c0392b" stroke-width="3" stroke-dasharray="4,2"/>
<circle cx="865" cy="461" r="8" fill="none" stroke="#c0392b" stroke-width="2"/>
<path d="M 768,460 L 768,476" stroke="#3a6a9a" stroke-width="2" marker-end="url(#arrB)"/>
<text x="744" y="488" font-size="7.5" fill="#3a6a9a">bow: −14 m</text>
<path d="M 940,448 L 940,432" stroke="#2a2218" stroke-width="2" marker-end="url(#arr)"/>
<text x="916" y="426" font-size="7.5" fill="#2a2218">stern rises</text>
<path d="M 838,470 L 820,468" stroke="#c0392b" stroke-width="1.8" marker-end="url(#arrR)"/>
<path d="M 895,462 L 913,460" stroke="#c0392b" stroke-width="1.8" marker-end="url(#arrR)"/>
<text x="865" y="495" text-anchor="middle" font-size="8"   fill="#c0392b" font-weight="bold">Break point</text>
<text x="865" y="507" text-anchor="middle" font-size="7.5" fill="#c0392b">Keel: compression</text>
<text x="865" y="518" text-anchor="middle" font-size="7.5" fill="#c0392b">Upper decks: tension</text>
<text x="865" y="529" text-anchor="middle" font-size="7.5" fill="#2a2218">between funnels 3–4</text>
<line x1="732" y1="540" x2="1050" y2="540" stroke="#c8bca8" stroke-width="0.8" stroke-dasharray="4,3"/>
<text x="891" y="558" text-anchor="middle" font-size="8.5" fill="#2a2218" font-weight="bold">Hull Steel — Charpy Impact Testing</text>
<text x="775" y="576" text-anchor="middle" font-size="7.5" fill="#5a4a28">Titanic</text>
<rect x="756" y="578" width="38" height="70" fill="#e8e0d0" stroke="#bbb" stroke-width="0.8" rx="1"/>
<rect x="756" y="628" width="38" height="20" fill="#c0392b" rx="1"/>
<text x="775" y="624" text-anchor="middle" font-size="8" fill="#c0392b" font-weight="bold">4–10 J</text>
<text x="842" y="576" text-anchor="middle" font-size="7.5" fill="#5a4a28">Modern</text>
<rect x="823" y="578" width="38" height="70" fill="#3a6a9a" rx="1"/>
<text x="842" y="574" text-anchor="middle" font-size="8" fill="#3a6a9a" font-weight="bold">200+ J</text>
<text x="800" y="658" text-anchor="middle" font-size="7.5" fill="#888">Impact energy absorbed</text>
<rect x="874" y="572" width="176" height="112" fill="#f0e8d8" stroke="#c0a870" stroke-width="0.8" rx="2"/>
<text x="962" y="586" text-anchor="middle" font-size="8" fill="#2a2218" font-weight="bold">Composition anomalies</text>
<line x1="879" y1="590" x2="1045" y2="590" stroke="#c0a870" stroke-width="0.6"/>
<text x="879"  y="602" font-size="7.5" fill="#4a3a20">Sulfur (S):</text>
<text x="1045" y="602" text-anchor="end" font-size="7.5" fill="#c0392b">0.069%  (limit 0.05%)</text>
<text x="879"  y="614" font-size="7.5" fill="#4a3a20">Mn : S ratio:</text>
<text x="1045" y="614" text-anchor="end" font-size="7.5" fill="#c0392b">6.8 : 1  (req. ≥ 20:1)</text>
<text x="879"  y="626" font-size="7.5" fill="#4a3a20">Oxygen (O):</text>
<text x="1045" y="626" text-anchor="end" font-size="7.5" fill="#c0392b">0.013%  (elevated)</text>
<text x="879"  y="638" font-size="7.5" fill="#4a3a20">Water temp.:</text>
<text x="1045" y="638" text-anchor="end" font-size="7.5" fill="#c0392b">−2°C  (DBTT zone)</text>
<line x1="879" y1="643" x2="1045" y2="643" stroke="#c0a870" stroke-width="0.6"/>
<text x="962" y="655" text-anchor="middle" font-size="7.5" fill="#c0392b" font-style="italic">MnS inclusions → brittle fracture</text>
<text x="962" y="666" text-anchor="middle" font-size="7.5" fill="#c0392b" font-style="italic">propagation at DBTT</text>

<!-- ANNOTATION FOOTER -->
<rect x="18" y="692" width="1044" height="158" fill="#2a2218" rx="2"/>
<text x="540" y="710" text-anchor="middle" font-size="9.5" fill="#c0a870" letter-spacing="2">ANNOTATED FAILURE SEQUENCE</text>
<circle cx="40" cy="730" r="9" fill="none" stroke="#c0392b" stroke-width="1.5"/>
<text x="40" y="734" text-anchor="middle" font-size="9" fill="#c0392b">①</text>
<text x="57"  y="725" font-size="8.5" fill="#e0c080" font-weight="bold">Iceberg Collision — 11:40 PM, 14 April 1912</text>
<text x="57"  y="736" font-size="7.5" fill="#a09878">Starboard bow scraped ~90 m at 22.5 kn. Rivets sheared across 6 sections. ~400 t/min ingress. No large gash.</text>
<circle cx="40" cy="752" r="9" fill="none" stroke="#c0392b" stroke-width="1.5"/>
<text x="40" y="756" text-anchor="middle" font-size="9" fill="#c0392b">②</text>
<text x="57"  y="747" font-size="8.5" fill="#e0c080" font-weight="bold">Rivet Failure (NIST, 1996)</text>
<text x="57"  y="758" font-size="7.5" fill="#a09878">Bow rivets: wrought iron, 9.3% MnS slag (max 2–3%). Sheared along brittle planes. Seams opened ~1.1 m² total.</text>
<circle cx="40" cy="774" r="9" fill="none" stroke="#e67e22" stroke-width="1.5"/>
<text x="40" y="778" text-anchor="middle" font-size="9" fill="#e67e22">③</text>
<text x="57"  y="769" font-size="8.5" fill="#e0c080" font-weight="bold">Bulkhead Height Flaw</text>
<text x="57"  y="780" font-size="7.5" fill="#a09878">Bulkheads reached E-deck only. No watertight deck cap. Designed for 4 flooded compartments; 5th was fatal.</text>
<circle cx="540" cy="730" r="9" fill="none" stroke="#3a6a9a" stroke-width="1.5"/>
<text x="540" y="734" text-anchor="middle" font-size="9" fill="#6aaac8">④</text>
<text x="557"  y="725" font-size="8.5" fill="#e0c080" font-weight="bold">Progressive Flooding</text>
<text x="557"  y="736" font-size="7.5" fill="#a09878">Water overtopped bulkhead E into BR4 with no direct breach. Cascade made outcome unrecoverable by ~00:30 AM.</text>
<circle cx="540" cy="752" r="9" fill="none" stroke="#c0392b" stroke-width="1.5"/>
<text x="540" y="756" text-anchor="middle" font-size="9" fill="#c0392b">⑤</text>
<text x="557"  y="747" font-size="8.5" fill="#e0c080" font-weight="bold">Structural Breakup — 2:17 AM, 15 April 1912</text>
<text x="557"  y="758" font-size="7.5" fill="#a09878">Hogging exceeded hull limit. Keel buckled (compression); upper decks failed (tension). Fractured between funnels 3–4.</text>
<circle cx="540" cy="774" r="9" fill="none" stroke="#c0a060" stroke-width="1.5"/>
<text x="540" y="778" text-anchor="middle" font-size="9" fill="#c0a060">⑥</text>
<text x="557"  y="769" font-size="8.5" fill="#e0c080" font-weight="bold">Steel Embrittlement</text>
<text x="557"  y="780" font-size="7.5" fill="#a09878">S=0.069%, Mn:S=6.8:1, temp −2°C (DBTT). Charpy: 4–10 J vs 200+ J modern. Brittle fracture propagated under hogging.</text>
<text x="540" y="836" text-anchor="middle" font-size="7.5" fill="#5a5040" font-style="italic">Sources: NIST (1996) · SNAME Marine Technology Vol. 35 (1998) · Foecke &amp; McCarty (2008) · MAIB formal investigation</text>

<!-- TOOLTIP OVERLAY (rendered by JS) -->
</g>
<g id="tt">
  <rect id="tt-bg" x="0" y="0" width="320" height="110" rx="3" fill="#1a1208" opacity="0.95"/>
  <rect x="0" y="0" width="4" height="110" rx="1" fill="#c0392b"/>
  <text id="tt-title" x="12" y="18" font-size="10" fill="#e0c080" font-weight="bold"></text>
  <text id="tt-body"  x="12" y="34" font-size="8.5" fill="#d0c8b8"></text>
</g>

<script><![CDATA[
const TIPS = {
  hs1: {
    title: '① Iceberg Collision — 11:40 PM, 14 April 1912',
    lines: [
      'Starboard bow scraped ~90 m of iceberg at 22.5 knots.',
      'No single large gash. Impact popped rivet heads across',
      '6 hull sections. Total open area ~1.1 m² in thin seams.',
      'Flood ingress immediately ~400 tonnes per minute.'
    ]
  },
  hs2: {
    title: '② Rivet Failure — NIST Metallurgical Study, 1996',
    lines: [
      'Bow rivets: wrought iron with 9.3% MnS slag (max 2–3%).',
      'Slag inclusions formed brittle failure planes within iron.',
      'Under dynamic impact, rivets sheared along MnS planes',
      'rather than deforming. Seams opened; steel rivets would',
      'very likely have held under identical loading.'
    ]
  },
  hs3: {
    title: '③ Bulkhead Design Flaw',
    lines: [
      "Bulkheads ended at E-deck — no watertight top cap.",
      'Ship rated for 4 simultaneous flooded compartments.',
      '5 compartments breached; cascade was inevitable.',
      'Carlisle proposed full-height bulkheads; White Star',
      'overruled on cost / first-class accommodation grounds.'
    ]
  },
  hs4: {
    title: '④ Progressive Flooding',
    lines: [
      'BR4 had NO direct iceberg breach.',
      'Rising water in BR5 overtopped bulkhead E (~00:30 AM)',
      'and flooded BR4 purely by cascade. This domino effect',
      'continued aft, making pumping efforts futile by 01:15.'
    ]
  },
  hs5: {
    title: '⑤ Structural Breakup — 2:17 AM, 15 April 1912',
    lines: [
      'Flooding bow dragged hull to >45° (hogging condition).',
      'Keel: extreme longitudinal COMPRESSION → buckled.',
      'Boat deck: TENSION → fractured between funnels 3–4.',
      'Stern briefly righted; sank separately at 2:20 AM.',
      'Wreck lies in two sections ~600 m apart on seabed.'
    ]
  },
  hs6: {
    title: '⑥ Steel Embrittlement',
    lines: [
      'S content: 0.069% (limit 0.05%). Mn:S ratio: 6.8:1.',
      'At −2°C seawater, steel entered ductile-brittle zone.',
      'Charpy impact: 4–10 J vs 200+ J for modern steel.',
      'Plates fractured rather than bent, accelerating breakup.',
      'Source: Foecke & McCarty, "What Really Sank the Titanic" 2008.'
    ]
  }
};

const tt      = document.getElementById('tt');
const ttBg    = document.getElementById('tt-bg');
const ttBord  = document.querySelector('#tt rect:nth-child(2)');
const ttTitle = document.getElementById('tt-title');
const ttBody  = document.getElementById('tt-body');

function showTip(id, evt) {
  const tip = TIPS[id];
  if (!tip) return;
  ttTitle.textContent = tip.title;

  // Clear old body lines
  while (ttBody.firstChild) ttBody.removeChild(ttBody.firstChild);
  tip.lines.forEach((line, i) => {
    const t = document.createElementNS('http://www.w3.org/2000/svg', 'tspan');
    t.setAttribute('x', '12');
    t.setAttribute('dy', i === 0 ? '0' : '13');
    t.textContent = line;
    ttBody.appendChild(t);
  });

  const h = 28 + tip.lines.length * 13 + 8;
  ttBg.setAttribute('height', h);

  const svg   = tt.ownerSVGElement;
  const pt    = svg.createSVGPoint();
  pt.x = evt.clientX; pt.y = evt.clientY;
  const svgPt = pt.matrixTransform(svg.getScreenCTM().inverse());
  let tx = svgPt.x + 16;
  let ty = svgPt.y - 16;
  if (tx + 325 > 1080) tx = svgPt.x - 336;
  if (ty < 0) ty = 4;
  tt.setAttribute('transform', 'translate(' + tx + ',' + ty + ')');
  tt.style.display = 'block';
}

['hs1','hs2','hs3','hs4','hs5','hs6'].forEach(id => {
  const el = document.getElementById(id);
  if (!el) return;
  el.addEventListener('mouseenter', e => showTip(id, e));
  el.addEventListener('mousemove',  e => showTip(id, e));
  el.addEventListener('mouseleave', () => { tt.style.display = 'none'; });
});
]]></script>
</svg>