<?xml version="1.0" encoding="UTF-8"?>
<svg viewBox="0 0 1200 900" xmlns="http://www.w3.org/2000/svg"
     width="1200" height="900" font-family="Georgia, 'Times New Roman', serif">
<defs>
  <style>
    .mono { font-family: 'Courier New', monospace; }
  </style>

  <marker id="arr-dark" viewBox="0 0 8 8" refX="7" refY="4" markerWidth="5" markerHeight="5" orient="auto">
    <path d="M0,0 L8,4 L0,8 Z" fill="#2a2218"/>
  </marker>
  <marker id="arr-red" viewBox="0 0 8 8" refX="7" refY="4" markerWidth="5" markerHeight="5" orient="auto">
    <path d="M0,0 L8,4 L0,8 Z" fill="#c0392b"/>
  </marker>
  <marker id="arr-amber" viewBox="0 0 8 8" refX="7" refY="4" markerWidth="5" markerHeight="5" orient="auto">
    <path d="M0,0 L8,4 L0,8 Z" fill="#c0a870"/>
  </marker>
  <marker id="arr-blue" viewBox="0 0 8 8" refX="7" refY="4" markerWidth="5" markerHeight="5" orient="auto">
    <path d="M0,0 L8,4 L0,8 Z" fill="#3a6a9a"/>
  </marker>
  <marker id="arr-green" viewBox="0 0 8 8" refX="7" refY="4" markerWidth="5" markerHeight="5" orient="auto">
    <path d="M0,0 L8,4 L0,8 Z" fill="#2a7a2a"/>
  </marker>

  <pattern id="grid" x="0" y="0" width="20" height="20" patternUnits="userSpaceOnUse">
    <path d="M 20 0 L 0 0 0 20" fill="none" stroke="#d8d0c0" stroke-width="0.3"/>
  </pattern>

  <!-- Sky/water gradient for bridge scene -->
  <linearGradient id="skyGrad" x1="0" y1="0" x2="0" y2="1">
    <stop offset="0%" stop-color="#4a6e8a"/>
    <stop offset="60%" stop-color="#7aa0c0"/>
    <stop offset="100%" stop-color="#5a8090"/>
  </linearGradient>
  <linearGradient id="waterGrad" x1="0" y1="0" x2="0" y2="1">
    <stop offset="0%" stop-color="#3a6070"/>
    <stop offset="100%" stop-color="#2a4858"/>
  </linearGradient>
  <!-- Wind turbulence lines pattern -->
  <pattern id="windLines" x="0" y="0" width="40" height="20" patternUnits="userSpaceOnUse">
    <path d="M0,10 Q10,5 20,10 Q30,15 40,10" stroke="#a0c8e0" stroke-width="0.6" fill="none" opacity="0.5"/>
  </pattern>
</defs>

<!-- ═══════════════════════════════════════════════════ -->
<!-- BACKGROUND                                          -->
<!-- ═══════════════════════════════════════════════════ -->
<rect width="1200" height="900" fill="#f5f0e8"/>
<rect width="1200" height="900" fill="url(#grid)" opacity="0.45"/>

<!-- ═══════════════════════════════════════════════════ -->
<!-- TITLE BLOCK                                         -->
<!-- ═══════════════════════════════════════════════════ -->
<rect x="0" y="0" width="1200" height="58" fill="#1a1208"/>
<line x1="0" y1="58" x2="1200" y2="58" stroke="#c0a870" stroke-width="2"/>
<text x="600" y="24" text-anchor="middle" font-size="16" fill="#f0ece4" letter-spacing="4" font-weight="bold">TACOMA NARROWS BRIDGE — AEROELASTIC FAILURE ANALYSIS</text>
<text x="600" y="46" text-anchor="middle" font-size="10" fill="#c0a870" letter-spacing="2">7 NOVEMBER 1940  ·  TORSIONAL FLUTTER AT ~42 MPH WIND  ·  SPAN: 2,800 FT  ·  "GALLOPING GERTIE"</text>

<!-- ═══════════════════════════════════════════════════ -->
<!-- ROW 1 — LEFT: BRIDGE DIAGRAM  (x 0–720)            -->
<!--          RIGHT: KEY PARAMETERS  (x 720–1200)       -->
<!-- ═══════════════════════════════════════════════════ -->

<!-- Sky background for diagram -->
<rect x="0" y="58" width="720" height="322" fill="url(#skyGrad)"/>
<!-- Wind turbulence overlay -->
<rect x="0" y="58" width="720" height="200" fill="url(#windLines)" opacity="0.6"/>
<!-- Water -->
<rect x="0" y="300" width="720" height="80" fill="url(#waterGrad)"/>
<!-- Water ripples -->
<path d="M0,310 Q90,305 180,310 Q270,315 360,310 Q450,305 540,310 Q630,315 720,310" stroke="#5a9ab0" stroke-width="1" fill="none" opacity="0.6"/>
<path d="M0,325 Q90,320 180,325 Q270,330 360,325 Q450,320 540,325 Q630,330 720,325" stroke="#5a9ab0" stroke-width="0.8" fill="none" opacity="0.4"/>

<!-- Horizon line label -->
<line x1="0" y1="380" x2="720" y2="380" stroke="#3a5a6a" stroke-width="1" stroke-dasharray="6,4"/>
<text x="8" y="377" font-size="8" fill="#a0c8d8" font-style="italic">Puget Sound, Washington State</text>

<!-- ── BRIDGE STRUCTURE ── -->
<!-- Left tower -->
<rect x="140" y="140" width="22" height="160" fill="#8a9aaa" stroke="#b8c8d8" stroke-width="1.5"/>
<!-- Left tower crossbar -->
<rect x="130" y="168" width="42" height="10" fill="#7a8a9a" stroke="#b8c8d8" stroke-width="1"/>
<!-- Left tower top -->
<rect x="145" y="132" width="12" height="14" fill="#9aaabb" stroke="#c8d4e0" stroke-width="1"/>
<!-- Left tower foundation -->
<rect x="128" y="296" width="46" height="10" fill="#5a6878" stroke="#b8c8d8" stroke-width="1"/>

<!-- Right tower -->
<rect x="558" y="140" width="22" height="160" fill="#8a9aaa" stroke="#b8c8d8" stroke-width="1.5"/>
<!-- Right tower crossbar -->
<rect x="548" y="168" width="42" height="10" fill="#7a8a9a" stroke="#b8c8d8" stroke-width="1"/>
<!-- Right tower top -->
<rect x="563" y="132" width="12" height="14" fill="#9aaabb" stroke="#c8d4e0" stroke-width="1"/>
<!-- Right tower foundation -->
<rect x="546" y="296" width="46" height="10" fill="#5a6878" stroke="#b8c8d8" stroke-width="1"/>

<!-- Main cables (catenary curves) -->
<path d="M 50,165 Q 151,210 360,240 Q 569,210 670,165" stroke="#c8c890" stroke-width="3" fill="none"/>
<!-- Cable shadow -->
<path d="M 50,167 Q 151,212 360,242 Q 569,212 670,167" stroke="#8a8860" stroke-width="1.5" fill="none" opacity="0.5"/>

<!-- Vertical suspender cables (left span) -->
<line x1="210" y1="220" x2="210" y2="264" stroke="#c8c890" stroke-width="1.2"/>
<line x1="250" y1="227" x2="250" y2="264" stroke="#c8c890" stroke-width="1.2"/>
<line x1="290" y1="232" x2="290" y2="264" stroke="#c8c890" stroke-width="1.2"/>
<line x1="330" y1="237" x2="330" y2="264" stroke="#c8c890" stroke-width="1.2"/>
<!-- Vertical suspender cables (right span) -->
<line x1="390" y1="237" x2="390" y2="264" stroke="#c8c890" stroke-width="1.2"/>
<line x1="430" y1="232" x2="430" y2="264" stroke="#c8c890" stroke-width="1.2"/>
<line x1="470" y1="227" x2="470" y2="264" stroke="#c8c890" stroke-width="1.2"/>
<line x1="510" y1="220" x2="510" y2="264" stroke="#c8c890" stroke-width="1.2"/>

<!-- DECK — shown twisting (torsional flutter effect) -->
<!-- Left half of deck twisting down-left -->
<path d="M 162,264 L 162,272 L 360,258 L 360,264 Z" fill="#7a6848" stroke="#5a4830" stroke-width="1"/>
<!-- Right half of deck twisting up-right -->
<path d="M 360,264 L 360,258 L 558,276 L 558,272 Z" fill="#9a8858" stroke="#5a4830" stroke-width="1"/>
<!-- Deck centerline crack indicator -->
<line x1="360" y1="256" x2="360" y2="278" stroke="#c0392b" stroke-width="1.5" stroke-dasharray="3,2"/>

<!-- Plate girder detail (solid, not truss — key design flaw) -->
<rect x="162" y="272" width="198" height="8" fill="#5a4830" stroke="#3a2818" stroke-width="0.8"/>
<rect x="360" y="272" width="198" height="8" fill="#6a5840" stroke="#3a2818" stroke-width="0.8"/>
<!-- Girder label -->
<text x="261" y="292" text-anchor="middle" font-size="7" fill="#e8d8b8" font-style="italic">solid plate girder — 8 ft deep</text>

<!-- Wind arrows from left -->
<path d="M 30,200 L 78,200" stroke="#d0e8f0" stroke-width="2.5" fill="none" marker-end="url(#arr-blue)"/>
<path d="M 20,220 L 68,220" stroke="#d0e8f0" stroke-width="2" fill="none" marker-end="url(#arr-blue)"/>
<path d="M 30,240 L 78,240" stroke="#d0e8f0" stroke-width="2.5" fill="none" marker-end="url(#arr-blue)"/>
<path d="M 20,260 L 68,260" stroke="#d0e8f0" stroke-width="2" fill="none" marker-end="url(#arr-blue)"/>
<text x="12" y="195" font-size="8" fill="#a0c8e8" font-weight="bold">~42 mph</text>
<text x="10" y="207" font-size="7" fill="#80a8c8">wind</text>

<!-- Torsion arc indicator -->
<path d="M 280,248 Q 295,230 310,248" stroke="#e07020" stroke-width="2" fill="none" marker-end="url(#arr-amber)"/>
<path d="M 400,248 Q 415,268 430,248" stroke="#e07020" stroke-width="2" fill="none" marker-end="url(#arr-amber)"/>
<text x="355" y="244" text-anchor="middle" font-size="7" fill="#e07020" font-weight="bold">45° twist</text>

<!-- Side anchor cables -->
<line x1="50" y1="165" x2="140" y2="175" stroke="#c8c890" stroke-width="2"/>
<line x1="670" y1="165" x2="580" y2="175" stroke="#c8c890" stroke-width="2"/>

<!-- Callout labels LEFT SIDE -->
<rect x="14" y="80" width="150" height="30" fill="#1a1208" rx="2" opacity="0.93"/>
<text x="89" y="93" text-anchor="middle" font-size="8" fill="#c0a870" font-weight="bold" class="mono">10:00 AM PST</text>
<text x="89" y="105" text-anchor="middle" font-size="7.5" fill="#d0c8b8">Torsional flutter begins</text>
<line x1="164" y1="95" x2="280" y2="248" stroke="#e07020" stroke-width="1.2" stroke-dasharray="4,3" marker-end="url(#arr-amber)"/>

<rect x="14" y="124" width="150" height="30" fill="#1a0808" rx="2" opacity="0.93"/>
<text x="89" y="137" text-anchor="middle" font-size="8" fill="#e06040" font-weight="bold" class="mono">10:07 AM PST</text>
<text x="89" y="149" text-anchor="middle" font-size="7.5" fill="#d0c8b8">28 ft rise, 45° deck twist</text>
<line x1="164" y1="139" x2="355" y2="256" stroke="#c0392b" stroke-width="1" stroke-dasharray="4,3" marker-end="url(#arr-red)"/>

<rect x="14" y="168" width="150" height="30" fill="#1a0808" rx="2" opacity="0.93"/>
<text x="89" y="181" text-anchor="middle" font-size="8" fill="#e06040" font-weight="bold" class="mono">11:00 AM PST</text>
<text x="89" y="193" text-anchor="middle" font-size="7.5" fill="#d0c8b8">Progressive collapse — bridge falls</text>
<line x1="164" y1="183" x2="360" y2="275" stroke="#c0392b" stroke-width="1" stroke-dasharray="4,3" marker-end="url(#arr-red)"/>

<rect x="14" y="212" width="150" height="30" fill="#0a1a08" rx="2" opacity="0.93"/>
<text x="89" y="225" text-anchor="middle" font-size="8" fill="#60cc60" font-weight="bold" class="mono">POST-COLLAPSE</text>
<text x="89" y="237" text-anchor="middle" font-size="7.5" fill="#d0c8b8">No human fatalities (1 dog lost)</text>

<!-- Callout labels RIGHT SIDE -->
<rect x="558" y="94" width="152" height="30" fill="#2a1008" rx="2" opacity="0.93"/>
<text x="634" y="107" text-anchor="middle" font-size="8.5" fill="#ff7040" font-weight="bold">North cable band</text>
<text x="634" y="119" text-anchor="middle" font-size="7.5" fill="#d0c8b8">slipped — triggered torsion</text>
<line x1="558" y1="108" x2="490" y2="232" stroke="#c0392b" stroke-width="1.2" stroke-dasharray="3,3" marker-end="url(#arr-red)"/>

<rect x="558" y="138" width="152" height="30" fill="#0a1428" rx="2" opacity="0.93"/>
<text x="634" y="151" text-anchor="middle" font-size="8.5" fill="#6aaae8" font-weight="bold">~0.23 Hz torsion</text>
<text x="634" y="163" text-anchor="middle" font-size="7.5" fill="#d0c8b8">vs 0.60 Hz vertical mode</text>

<rect x="558" y="182" width="152" height="30" fill="#0a1428" rx="2" opacity="0.93"/>
<text x="634" y="195" text-anchor="middle" font-size="8.5" fill="#6aaae8" font-weight="bold">~700 torsional cycles</text>
<text x="634" y="207" text-anchor="middle" font-size="7.5" fill="#d0c8b8">in final hour before collapse</text>

<!-- ── RIGHT PANEL: KEY PARAMETERS ── -->
<rect x="720" y="58" width="480" height="322" fill="#0d1220"/>
<line x1="720" y1="58" x2="720" y2="380" stroke="#c0a870" stroke-width="1.5"/>
<rect x="720" y="58" width="480" height="28" fill="#161e30"/>
<text x="960" y="77" text-anchor="middle" font-size="10" fill="#c0a870" letter-spacing="2">KEY PARAMETERS &amp; CONTEXT</text>

<!-- Wind speed comparison -->
<rect x="734" y="98" width="210" height="70" fill="#0a1a2a" stroke="#3a6a9a" stroke-width="1" rx="3"/>
<text x="839" y="116" text-anchor="middle" font-size="9" fill="#c0a870">Wind Speed at Collapse</text>
<text x="839" y="148" text-anchor="middle" font-size="24" fill="#e06040" font-weight="bold">42 mph</text>
<text x="839" y="162" text-anchor="middle" font-size="9" fill="#8aaac8">vs. 120 mph design limit (~12% of capacity)</text>

<!-- Design flaw -->
<rect x="958" y="98" width="210" height="70" fill="#1a1008" stroke="#c0a870" stroke-width="1" rx="3"/>
<text x="1063" y="116" text-anchor="middle" font-size="9" fill="#c0a870">Deck Geometry</text>
<text x="1063" y="138" text-anchor="middle" font-size="13" fill="#e0c080" font-weight="bold">1:350 depth/span ratio</text>
<text x="1063" y="154" text-anchor="middle" font-size="8.5" fill="#c09850">8 ft girders / 2,800 ft span</text>
<text x="1063" y="168" text-anchor="middle" font-size="8" fill="#c09850">width/span = 1:72</text>

<!-- Root cause callout -->
<rect x="734" y="182" width="434" height="46" fill="#1a0808" stroke="#c0392b" stroke-width="0.8" rx="2"/>
<text x="951" y="198" text-anchor="middle" font-size="9" fill="#e0c080" font-weight="bold">Root cause: solid plate-girder deck acted as an airfoil generating aerodynamic lift &amp; moment</text>
<text x="951" y="212" text-anchor="middle" font-size="8" fill="#c09060">Deck was too slender and torsionally weak. Deflection-theory design favoured economy over aerodynamic stability.</text>
<text x="951" y="224" text-anchor="middle" font-size="8" fill="#c09060">No pre-construction wind-tunnel testing was required or performed. Farquharson's retrofit had not yet been installed.</text>

<!-- Bridge facts box -->
<rect x="734" y="242" width="210" height="120" fill="#0e1628" stroke="#3a6a9a" stroke-width="1" rx="3"/>
<text x="839" y="259" text-anchor="middle" font-size="9" fill="#c0a870">Bridge Specifications</text>
<line x1="740" y1="263" x2="938" y2="263" stroke="#3a6a9a" stroke-width="0.6"/>
<text x="740" y="278" font-size="7.5" fill="#a0b8d0">Main span length:    2,800 ft</text>
<text x="740" y="292" font-size="7.5" fill="#a0b8d0">Stiffening girder depth:  8 ft</text>
<text x="740" y="306" font-size="7.5" fill="#a0b8d0">Deck width:              39 ft</text>
<text x="740" y="320" font-size="7.5" fill="#a0b8d0">Opened:          1 July 1940</text>
<line x1="740" y1="328" x2="938" y2="328" stroke="#3a6a9a" stroke-width="0.6"/>
<text x="839" y="342" text-anchor="middle" font-size="8" fill="#e06040" font-weight="bold">Collapsed: 7 Nov 1940</text>
<text x="839" y="356" text-anchor="middle" font-size="7.5" fill="#a0c880">Only 4 months after opening</text>

<!-- Physics parameters box -->
<rect x="958" y="242" width="210" height="120" fill="#141414" stroke="#c0a870" stroke-width="0.8" rx="3"/>
<text x="1063" y="259" text-anchor="middle" font-size="9" fill="#c0a870">Dynamic Parameters</text>
<line x1="964" y1="263" x2="1162" y2="263" stroke="#c0a870" stroke-width="0.6"/>
<text x="964" y="278" font-size="7.5" fill="#d0c8b8">Early vertical mode:    0.60–0.63 Hz</text>
<text x="964" y="292" font-size="7.5" fill="#d0c8b8">Final torsional mode:   ~0.23 Hz</text>
<text x="964" y="306" font-size="7.5" fill="#d0c8b8">Observed period:        ~5 sec</text>
<text x="964" y="320" font-size="7.5" fill="#c0a870">Vortex-shedding freq.:  ~1 Hz</text>
<text x="964" y="334" font-size="7.5" fill="#d0c8b8">Max deck twist:          ~45°</text>
<text x="964" y="348" font-size="7.5" fill="#e06040">Max deck rise one side:  28 ft</text>

<!-- ═══════════════════════════════════════════════════ -->
<!-- SECTION DIVIDER                                     -->
<!-- ═══════════════════════════════════════════════════ -->
<rect x="0" y="380" width="1200" height="22" fill="#161e30"/>
<line x1="0" y1="380" x2="1200" y2="380" stroke="#c0a870" stroke-width="1.5"/>
<line x1="0" y1="402" x2="1200" y2="402" stroke="#c0a870" stroke-width="1.5"/>
<text x="600" y="395" text-anchor="middle" font-size="9" fill="#c0a870" letter-spacing="3">DETAIL PANELS — FAILURE MECHANISM, SWISS CHEESE &amp; 5-WHYS ROOT CAUSE</text>

<!-- ═══════════════════════════════════════════════════ -->
<!-- PANEL A — AEROELASTIC FAILURE CHAIN                -->
<!-- x=0, y=402, w=390, h=496                           -->
<!-- ═══════════════════════════════════════════════════ -->
<rect x="0" y="402" width="390" height="496" fill="#faf6ee" stroke="#c8bca8" stroke-width="1"/>
<rect x="0" y="402" width="390" height="24" fill="#161e30"/>
<text x="195" y="418" text-anchor="middle" font-size="10" fill="#f0ece4" letter-spacing="1.5">A — AEROELASTIC FAILURE CHAIN</text>

<text x="195" y="442" text-anchor="middle" font-size="9" fill="#2a2218" font-weight="bold">Design decisions &amp; sequence — 1938–1940</text>

<!-- Step 1 -->
<rect x="20" y="450" width="350" height="36" fill="#e8e0f0" stroke="#7a6a9a" stroke-width="0.8" rx="2"/>
<text x="195" y="464" text-anchor="middle" font-size="8.5" fill="#3a2a5a" font-weight="bold">1938 — Moisseiff selected; Eldridge concept rejected</text>
<text x="195" y="477" text-anchor="middle" font-size="7.5" fill="#5a4a7a">Federal funding required cheaper design. Plate girder deck chosen over open truss.</text>

<line x1="195" y1="486" x2="195" y2="494" stroke="#8a7a9a" stroke-width="1.5" marker-end="url(#arr-dark)"/>

<!-- Step 2 -->
<rect x="20" y="494" width="350" height="36" fill="#e8e0f0" stroke="#7a6a9a" stroke-width="0.8" rx="2"/>
<text x="195" y="508" text-anchor="middle" font-size="8.5" fill="#3a2a5a" font-weight="bold">1940 (May) — Bridge opens; deck already bouncing</text>
<text x="195" y="521" text-anchor="middle" font-size="7.5" fill="#c0392b">Workers note vertical oscillations. Four hydraulic buffers installed — no improvement observed.</text>

<line x1="195" y1="530" x2="195" y2="538" stroke="#8a7a9a" stroke-width="1.5" marker-end="url(#arr-dark)"/>

<!-- Step 3 -->
<rect x="20" y="538" width="350" height="36" fill="#ffe8d8" stroke="#c07840" stroke-width="0.8" rx="2"/>
<text x="195" y="552" text-anchor="middle" font-size="8.5" fill="#5a2808" font-weight="bold">Oct 1940 — Tie-down cables added; center span unaffected</text>
<text x="195" y="565" text-anchor="middle" font-size="7.5" fill="#5a2808">One tie-down cable snapped Nov 1. Farquharson's retrofit (perforated girders) not yet installed.</text>

<line x1="195" y1="574" x2="195" y2="582" stroke="#8a7a9a" stroke-width="1.5" marker-end="url(#arr-dark)"/>

<!-- Step 4 -->
<rect x="20" y="582" width="350" height="36" fill="#ffe0c8" stroke="#c06030" stroke-width="1" rx="2"/>
<text x="195" y="596" text-anchor="middle" font-size="8.5" fill="#5a1808" font-weight="bold">7 Nov, ~9:00 AM — 42 mph wind, deck oscillates vertically</text>
<text x="195" y="609" text-anchor="middle" font-size="7.5" fill="#5a1808">Frequency ~0.60 Hz. Traffic still moving. Wind-induced vertical mode — seemingly familiar.</text>

<line x1="195" y1="618" x2="195" y2="626" stroke="#8a7a9a" stroke-width="1.5" marker-end="url(#arr-dark)"/>

<!-- Step 5 -->
<rect x="20" y="626" width="350" height="36" fill="#ffd0b8" stroke="#c04020" stroke-width="1.2" rx="2"/>
<text x="195" y="640" text-anchor="middle" font-size="8.5" fill="#5a0808" font-weight="bold">~10:00 AM — North midspan cable band slips</text>
<text x="195" y="653" text-anchor="middle" font-size="7.5" fill="#5a0808">Splits north cable into unequal lengths. Mode switches abruptly to torsion at ~0.23 Hz.</text>

<line x1="195" y1="662" x2="195" y2="670" stroke="#c0392b" stroke-width="2" marker-end="url(#arr-red)"/>

<!-- Step 6 — COLLAPSE -->
<rect x="20" y="670" width="350" height="50" fill="#c0392b" stroke="#8a1808" stroke-width="1.5" rx="2"/>
<text x="195" y="688" text-anchor="middle" font-size="9" fill="#fff" font-weight="bold">10:07–11:00 AM — Self-excited torsional flutter, collapse</text>
<text x="195" y="701" text-anchor="middle" font-size="7.5" fill="#ffe0d8">Deck twists 45°; 28 ft rise per side. ~700 torsional cycles. Concrete sections fall,</text>
<text x="195" y="713" text-anchor="middle" font-size="7.5" fill="#ffe0d8">girders twist, bolts shear, suspenders snap. Bridge falls into Puget Sound.</text>

<!-- Equation box -->
<rect x="20" y="730" width="350" height="50" fill="#f0ece0" stroke="#c0a870" stroke-width="0.8" rx="2"/>
<text x="195" y="745" text-anchor="middle" font-size="8.5" fill="#2a2218" font-weight="bold">Flutter instability condition (engineering model):</text>
<text x="195" y="761" text-anchor="middle" font-size="9" fill="#3a5a8a" font-style="italic">c_eff(U) &lt; 0  →  θ(t) ≈ θ₀ · e^(σt) · sin(ωt),  σ &gt; 0</text>
<text x="195" y="775" text-anchor="middle" font-size="7.5" fill="#6a5a40">Negative aerodynamic damping — oscillation grows without bound</text>

<!-- Source note -->
<text x="195" y="798" text-anchor="middle" font-size="7.5" fill="#8a7a60" font-style="italic">Refs: WSDOT TNB History · Cambridge J. Fluid Mech. 2022</text>
<text x="195" y="811" text-anchor="middle" font-size="7.5" fill="#8a7a60" font-style="italic">Journal of Sound &amp; Vibration (2008) · Britannica bridge engineering</text>
<text x="195" y="824" text-anchor="middle" font-size="7.5" fill="#8a7a60" font-style="italic">Contributing: no mandatory aeroelastic testing pre-construction</text>

<!-- ═══════════════════════════════════════════════════ -->
<!-- PANEL B — SWISS CHEESE & ROOT CAUSE                -->
<!-- x=400, y=402, w=400, h=496                         -->
<!-- ═══════════════════════════════════════════════════ -->
<rect x="400" y="402" width="400" height="496" fill="#faf6ee" stroke="#c8bca8" stroke-width="1"/>
<rect x="400" y="402" width="400" height="24" fill="#161e30"/>
<text x="600" y="418" text-anchor="middle" font-size="10" fill="#f0ece4" letter-spacing="1.5">B — SWISS CHEESE &amp; 5-WHYS ANALYSIS</text>

<text x="600" y="440" text-anchor="middle" font-size="9" fill="#2a2218" font-weight="bold">Aligned failure layers — each a hole in the defence</text>

<!-- Swiss Cheese layers -->
<!-- Layer 1 -->
<rect x="412" y="448" width="376" height="60" fill="#e8f4e8" stroke="#2a7a2a" stroke-width="1" rx="3"/>
<rect x="412" y="448" width="376" height="18" fill="#2a5a2a" rx="2"/>
<text x="600" y="460" text-anchor="middle" font-size="8.5" fill="#c8e8c8" font-weight="bold">LAYER 1 — Material / Design</text>
<text x="418" y="477" font-size="7.5" fill="#1a4a1a">Extreme deck slenderness (1:350 depth/span). Solid plate girders — airfoil cross-section</text>
<text x="418" y="490" font-size="7.5" fill="#1a4a1a">generating lift. Insufficient torsional stiffness. No aerodynamic pre-validation.</text>
<text x="418" y="503" font-size="7.5" fill="#2a6a2a" font-weight="bold">Hole: bridge strong statically, but aeroelastically unstable.</text>

<!-- Layer 2 -->
<rect x="412" y="518" width="376" height="60" fill="#e8f0f8" stroke="#3a6a9a" stroke-width="1" rx="3"/>
<rect x="412" y="518" width="376" height="18" fill="#1a3a6a" rx="2"/>
<text x="600" y="530" text-anchor="middle" font-size="8.5" fill="#c0d8f0" font-weight="bold">LAYER 2 — Management / Decisions</text>
<text x="418" y="548" font-size="7.5" fill="#1a2a4a">Cost pressure pushed design toward Moisseiff's slender deflection-theory concept.</text>
<text x="418" y="561" font-size="7.5" fill="#1a2a4a">Eldridge's conservative objections overruled. Buffers &amp; tie-downs installed late, ineffective.</text>
<text x="418" y="575" font-size="7.5" fill="#1a4a8a" font-weight="bold">Hole: post-opening remediation was partial and too slow.</text>

<!-- Layer 3 -->
<rect x="412" y="588" width="376" height="60" fill="#fff4d8" stroke="#c0a030" stroke-width="1" rx="3"/>
<rect x="412" y="588" width="376" height="18" fill="#6a5010" rx="2"/>
<text x="600" y="600" text-anchor="middle" font-size="8.5" fill="#f0d890" font-weight="bold">LAYER 3 — Regulatory / Oversight</text>
<text x="418" y="618" font-size="7.5" fill="#4a3010">Federal and state experts approved plans under prevailing 1930s theory.</text>
<text x="418" y="631" font-size="7.5" fill="#4a3010">No mandatory wind-tunnel or aeroelastic testing requirement existed for long-span bridges.</text>
<text x="418" y="645" font-size="7.5" fill="#8a6010" font-weight="bold">Hole: profession-wide blind spot on wind-induced dynamics.</text>

<!-- Layer 4 -->
<rect x="412" y="658" width="376" height="60" fill="#f0e8f8" stroke="#7a5a9a" stroke-width="1" rx="3"/>
<rect x="412" y="658" width="376" height="18" fill="#4a2a6a" rx="2"/>
<text x="600" y="670" text-anchor="middle" font-size="8.5" fill="#d8c0f0" font-weight="bold">LAYER 4 — Knowledge / Theory</text>
<text x="418" y="688" font-size="7.5" fill="#3a1a5a">1930s suspension-bridge practice relied on deflection theory (static).</text>
<text x="418" y="701" font-size="7.5" fill="#3a1a5a">Self-excited aeroelastic flutter not yet part of standard bridge design vocabulary.</text>
<text x="418" y="715" font-size="7.5" fill="#6a3a8a" font-weight="bold">Hole: accepted theory under-estimated wind-structure interaction.</text>

<!-- 5-Whys compact -->
<rect x="412" y="728" width="376" height="142" fill="#f0ece0" stroke="#c0a870" stroke-width="0.8" rx="3"/>
<rect x="412" y="728" width="376" height="16" fill="#3a2a18" rx="2"/>
<text x="600" y="740" text-anchor="middle" font-size="8.5" fill="#e0c880" font-weight="bold">5-WHYS ROOT CAUSE CHAIN</text>
<text x="418" y="757" font-size="7.5" fill="#4a3a20"><tspan font-weight="bold">Why 1:</tspan> Why did the bridge collapse?</text>
<text x="428" y="769" font-size="7" fill="#5a4a30">→ Large torsional oscillation caused progressive structural breakup.</text>
<text x="418" y="783" font-size="7.5" fill="#4a3a20"><tspan font-weight="bold">Why 2:</tspan> Why did torsional flutter develop?</text>
<text x="428" y="795" font-size="7" fill="#5a4a30">→ Deck switched from vertical to self-excited torsional mode at ~0.23 Hz.</text>
<text x="418" y="809" font-size="7.5" fill="#4a3a20"><tspan font-weight="bold">Why 3:</tspan> Why was flutter possible at only 42 mph?</text>
<text x="428" y="821" font-size="7" fill="#5a4a30">→ Deck too torsionally weak; solid girder generated destabilising aerodynamic forces.</text>
<text x="418" y="835" font-size="7.5" fill="#4a3a20"><tspan font-weight="bold">Why 4:</tspan> Why was the deck so slender &amp; aerodynamically poor?</text>
<text x="428" y="847" font-size="7" fill="#5a4a30">→ Cost-driven design followed deflection-theory preference for light, narrow decks.</text>
<text x="418" y="861" font-size="7.5" fill="#c0392b" font-weight="bold">Why 5: No pre-construction aeroelastic verification was required or performed.</text>

<!-- ═══════════════════════════════════════════════════ -->
<!-- PANEL C — LEGACY & TIMELINE                        -->
<!-- x=810, y=402, w=390, h=496                         -->
<!-- ═══════════════════════════════════════════════════ -->
<rect x="810" y="402" width="390" height="496" fill="#faf6ee" stroke="#c8bca8" stroke-width="1"/>
<rect x="810" y="402" width="390" height="24" fill="#161e30"/>
<text x="1005" y="418" text-anchor="middle" font-size="10" fill="#f0ece4" letter-spacing="1.5">C — EVENT TIMELINE &amp; LEGACY</text>

<text x="1005" y="440" text-anchor="middle" font-size="9" fill="#2a2218" font-weight="bold">7 November 1940 — key events &amp; engineering legacy</text>

<!-- Column headers -->
<text x="830" y="458" font-size="8" fill="#8a7a60" font-weight="bold">TIME</text>
<text x="906" y="458" font-size="8" fill="#8a7a60" font-weight="bold">STATUS</text>
<text x="976" y="458" font-size="8" fill="#8a7a60" font-weight="bold">EVENT</text>
<line x1="820" y1="462" x2="1192" y2="462" stroke="#c8bca8" stroke-width="0.8"/>

<!-- Row 1 -->
<text x="900" y="478" text-anchor="end" font-size="7.5" fill="#3a6030" font-weight="bold" class="mono">Jul 1, 1940</text>
<rect x="906" y="467" width="60" height="14" fill="#2a7a2a" rx="1" opacity="0.7"/>
<text x="976" y="478" font-size="7.5" fill="#3a6030">Bridge opens — 4th longest suspension span in world</text>

<!-- Row 2 -->
<text x="900" y="502" text-anchor="end" font-size="7.5" fill="#5a4a28" font-weight="bold" class="mono">May 1940</text>
<rect x="906" y="491" width="60" height="14" fill="#c08030" rx="1" opacity="0.7"/>
<text x="976" y="502" font-size="7.5" fill="#5a4a28">Bouncing noted — workers call it "Galloping Gertie"</text>

<!-- Row 3 -->
<text x="900" y="526" text-anchor="end" font-size="7.5" fill="#5a4a28" font-weight="bold" class="mono">Oct 1940</text>
<rect x="906" y="515" width="60" height="14" fill="#c07020" rx="1" opacity="0.8"/>
<text x="976" y="526" font-size="7.5" fill="#5a4a28">Hydraulic buffers + tie-down cables installed; ineffective</text>

<!-- Row 4 — KEY INCIDENT -->
<rect x="820" y="533" width="372" height="4" fill="#c0392b" opacity="0.3"/>
<text x="900" y="549" text-anchor="end" font-size="7.5" fill="#c0392b" font-weight="bold" class="mono">~9:00 AM</text>
<rect x="906" y="538" width="60" height="14" fill="#c0a030" rx="1"/>
<text x="976" y="549" font-size="7.5" fill="#c0392b" font-weight="bold">42 mph wind — vertical oscillation begins (~0.60 Hz)</text>

<!-- Row 5 -->
<text x="900" y="571" text-anchor="end" font-size="7.5" fill="#8a2010" font-weight="bold" class="mono">~9:50 AM</text>
<rect x="906" y="560" width="60" height="14" fill="#c07020" rx="1" opacity="0.85"/>
<text x="976" y="571" font-size="7.5" fill="#8a2010">Last vehicle crosses; bridge closed to traffic</text>

<!-- Row 6 — MODE SWITCH -->
<text x="900" y="593" text-anchor="end" font-size="7.5" fill="#8a2010" font-weight="bold" class="mono">~10:00 AM</text>
<rect x="906" y="582" width="60" height="14" fill="#c0392b" rx="1" opacity="0.85"/>
<text x="976" y="593" font-size="7.5" fill="#8a2010" font-weight="bold">Cable band slips — mode switches to torsion (~0.23 Hz)</text>

<!-- Row 7 -->
<text x="900" y="615" text-anchor="end" font-size="7.5" fill="#8a2010" font-weight="bold" class="mono">10:07 AM</text>
<rect x="906" y="604" width="60" height="14" fill="#c0392b" rx="1" opacity="0.9"/>
<text x="976" y="615" font-size="7.5" fill="#8a2010">Deck twisting 45°; one side rising 28 ft each 5 seconds</text>

<!-- Row 8 -->
<text x="900" y="637" text-anchor="end" font-size="7.5" fill="#8a2010" font-weight="bold" class="mono">10:30 AM</text>
<rect x="906" y="626" width="60" height="14" fill="#c0392b" rx="1" opacity="0.9"/>
<text x="976" y="637" font-size="7.5" fill="#8a2010">Concrete sections break off; bolts shear; suspenders snap</text>

<!-- Row 9 — COLLAPSE -->
<rect x="820" y="644" width="372" height="26" fill="#8a1808" rx="2"/>
<text x="900" y="661" text-anchor="end" font-size="8" fill="#ffd0c0" font-weight="bold" class="mono">11:00 AM</text>
<text x="912" y="661" font-size="8" fill="#fff" font-weight="bold">COLLAPSE — 600-ft centre span falls into Puget Sound</text>

<!-- Row 10 — aftermath -->
<text x="900" y="681" text-anchor="end" font-size="7.5" fill="#3a5a8a" font-weight="bold" class="mono">Post-event</text>
<rect x="906" y="670" width="60" height="14" fill="#3a6a9a" rx="1" opacity="0.8"/>
<text x="976" y="681" font-size="7.5" fill="#3a5a8a">Farquharson films collapse — footage becomes iconic</text>

<!-- Row 11 — investigation -->
<text x="900" y="703" text-anchor="end" font-size="7.5" fill="#3a5a8a" font-weight="bold" class="mono">1941</text>
<rect x="906" y="692" width="60" height="14" fill="#3a6a9a" rx="1" opacity="0.8"/>
<text x="976" y="703" font-size="7.5" fill="#3a5a8a">Carmody board report — "excessive flexibility" cited</text>

<!-- Row 12 — replacement -->
<text x="900" y="725" text-anchor="end" font-size="7.5" fill="#2a5a2a" font-weight="bold" class="mono">1950</text>
<rect x="906" y="714" width="60" height="14" fill="#2a7a2a" rx="1" opacity="0.7"/>
<text x="976" y="725" font-size="7.5" fill="#2a5a2a">New Tacoma Narrows Bridge opens — open truss stiffening</text>

<!-- Legacy box -->
<rect x="820" y="734" width="372" height="116" fill="#f0e8d8" stroke="#c0a870" stroke-width="0.8" rx="3"/>
<rect x="820" y="734" width="372" height="16" fill="#3a2a18" rx="2"/>
<text x="1005" y="746" text-anchor="middle" font-size="9" fill="#e0c880" font-weight="bold">Engineering Legacy</text>
<text x="826" y="763" font-size="7.5" fill="#4a3a20">Wind-tunnel testing became standard for all long-span bridge design.</text>
<text x="826" y="777" font-size="7.5" fill="#4a3a20">Open trusses replaced solid plate girders on replacement suspension bridges.</text>
<text x="826" y="791" font-size="7.5" fill="#4a3a20">Bronx-Whitestone, Deer Isle, Golden Gate all retrofitted with extra stiffening.</text>
<text x="826" y="805" font-size="7.5" fill="#4a3a20">AASHTO LRFD now requires buffeting, vortex, galloping, flutter &amp; divergence study.</text>
<text x="826" y="819" font-size="7.5" fill="#4a3a20">Federal bridge funding mandates 3-D wind-tunnel analysis for flexible spans.</text>
<line x1="826" y1="827" x2="1186" y2="827" stroke="#c0a870" stroke-width="0.6"/>
<text x="1005" y="843" text-anchor="middle" font-size="8" fill="#2a6a2a" font-weight="bold">"Static strength is not enough — dynamic wind stability is essential."</text>

<!-- ═══════════════════════════════════════════════════ -->
<!-- FOOTER                                             -->
<!-- ═══════════════════════════════════════════════════ -->
<rect x="0" y="862" width="1200" height="38" fill="#1a1208"/>
<line x1="0" y1="862" x2="1200" y2="862" stroke="#c0a870" stroke-width="1.5"/>
<text x="600" y="876" text-anchor="middle" font-size="8.5" fill="#c8b880">Note: The Tacoma Narrows failure is considered engineering's most consequential wind-induced collapse — it permanently transformed how bridges are designed for aerodynamic stability worldwide.</text>
<text x="600" y="893" text-anchor="middle" font-size="7.5" fill="#8a7a50" font-style="italic">Sources: WSDOT TNB History · Encyclopedia Britannica bridge engineering · Cambridge J. Fluid Mech. (2022) · ASCE Historic Landmarks · Journal of Sound &amp; Vibration (2008) · AASHTO LRFD Bridge Design Specifications</text>
</svg>